<?xml version="1.0" encoding="utf-8" standalone="no"?>
<!DOCTYPE svg PUBLIC "-//W3C//DTD SVG 1.1//EN"
  "http://www.w3.org/Graphics/SVG/1.1/DTD/svg11.dtd">
<!-- Created with matplotlib (https://matplotlib.org/) -->
<svg height="288pt" version="1.1" viewBox="0 0 432 288" width="432pt" xmlns="http://www.w3.org/2000/svg" xmlns:xlink="http://www.w3.org/1999/xlink">
 <defs>
  <style type="text/css">
*{stroke-linecap:butt;stroke-linejoin:round;}
  </style>
 </defs>
 <g id="figure_1">
  <g id="patch_1">
   <path d="M 0 288 
L 432 288 
L 432 0 
L 0 0 
z
" style="fill:#ffffff;"/>
  </g>
  <g id="axes_1">
   <g id="patch_2">
    <path d="M 16.504646 258.945354 
L 429.165354 258.945354 
L 429.165354 2.834646 
L 16.504646 2.834646 
z
" style="fill:#ffffff;"/>
   </g>
   <g id="matplotlib.axis_1">
    <g id="xtick_1">
     <g id="line2d_1">
      <path clip-path="url(#p26d5ef3476)" d="M 27.79403 258.945354 
L 27.79403 2.834646 
" style="fill:none;stroke:#000000;stroke-linecap:square;stroke-opacity:0.1;stroke-width:0.5;"/>
     </g>
     <g id="line2d_2">
      <defs>
       <path d="M 0 0 
L 0 -3.5 
" id="meea013f5ad" style="stroke:#000000;stroke-width:0.8;"/>
      </defs>
      <g>
       <use style="stroke:#000000;stroke-width:0.8;" x="27.79403" xlink:href="#meea013f5ad" y="258.945354"/>
      </g>
     </g>
     <g id="text_1">
      <!-- 0 -->
      <defs>
       <path d="M 31.78125 66.40625 
Q 24.171875 66.40625 20.328125 58.90625 
Q 16.5 51.421875 16.5 36.375 
Q 16.5 21.390625 20.328125 13.890625 
Q 24.171875 6.390625 31.78125 6.390625 
Q 39.453125 6.390625 43.28125 13.890625 
Q 47.125 21.390625 47.125 36.375 
Q 47.125 51.421875 43.28125 58.90625 
Q 39.453125 66.40625 31.78125 66.40625 
z
M 31.78125 74.21875 
Q 44.046875 74.21875 50.515625 64.515625 
Q 56.984375 54.828125 56.984375 36.375 
Q 56.984375 17.96875 50.515625 8.265625 
Q 44.046875 -1.421875 31.78125 -1.421875 
Q 19.53125 -1.421875 13.0625 8.265625 
Q 6.59375 17.96875 6.59375 36.375 
Q 6.59375 54.828125 13.0625 64.515625 
Q 19.53125 74.21875 31.78125 74.21875 
z
" id="DejaVuSans-48"/>
      </defs>
      <g transform="translate(25.24903 268.524104)scale(0.08 -0.08)">
       <use xlink:href="#DejaVuSans-48"/>
      </g>
     </g>
    </g>
    <g id="xtick_2">
     <g id="line2d_3">
      <path clip-path="url(#p26d5ef3476)" d="M 125.217092 258.945354 
L 125.217092 2.834646 
" style="fill:none;stroke:#000000;stroke-linecap:square;stroke-opacity:0.1;stroke-width:0.5;"/>
     </g>
     <g id="line2d_4">
      <g>
       <use style="stroke:#000000;stroke-width:0.8;" x="125.217092" xlink:href="#meea013f5ad" y="258.945354"/>
      </g>
     </g>
     <g id="text_2">
      <!-- 250 -->
      <defs>
       <path d="M 19.1875 8.296875 
L 53.609375 8.296875 
L 53.609375 0 
L 7.328125 0 
L 7.328125 8.296875 
Q 12.9375 14.109375 22.625 23.890625 
Q 32.328125 33.6875 34.8125 36.53125 
Q 39.546875 41.84375 41.421875 45.53125 
Q 43.3125 49.21875 43.3125 52.78125 
Q 43.3125 58.59375 39.234375 62.25 
Q 35.15625 65.921875 28.609375 65.921875 
Q 23.96875 65.921875 18.8125 64.3125 
Q 13.671875 62.703125 7.8125 59.421875 
L 7.8125 69.390625 
Q 13.765625 71.78125 18.9375 73 
Q 24.125 74.21875 28.421875 74.21875 
Q 39.75 74.21875 46.484375 68.546875 
Q 53.21875 62.890625 53.21875 53.421875 
Q 53.21875 48.921875 51.53125 44.890625 
Q 49.859375 40.875 45.40625 35.40625 
Q 44.1875 33.984375 37.640625 27.21875 
Q 31.109375 20.453125 19.1875 8.296875 
z
" id="DejaVuSans-50"/>
       <path d="M 10.796875 72.90625 
L 49.515625 72.90625 
L 49.515625 64.59375 
L 19.828125 64.59375 
L 19.828125 46.734375 
Q 21.96875 47.46875 24.109375 47.828125 
Q 26.265625 48.1875 28.421875 48.1875 
Q 40.625 48.1875 47.75 41.5 
Q 54.890625 34.8125 54.890625 23.390625 
Q 54.890625 11.625 47.5625 5.09375 
Q 40.234375 -1.421875 26.90625 -1.421875 
Q 22.3125 -1.421875 17.546875 -0.640625 
Q 12.796875 0.140625 7.71875 1.703125 
L 7.71875 11.625 
Q 12.109375 9.234375 16.796875 8.0625 
Q 21.484375 6.890625 26.703125 6.890625 
Q 35.15625 6.890625 40.078125 11.328125 
Q 45.015625 15.765625 45.015625 23.390625 
Q 45.015625 31 40.078125 35.4375 
Q 35.15625 39.890625 26.703125 39.890625 
Q 22.75 39.890625 18.8125 39.015625 
Q 14.890625 38.140625 10.796875 36.28125 
z
" id="DejaVuSans-53"/>
      </defs>
      <g transform="translate(117.582092 268.524104)scale(0.08 -0.08)">
       <use xlink:href="#DejaVuSans-50"/>
       <use x="63.623047" xlink:href="#DejaVuSans-53"/>
       <use x="127.246094" xlink:href="#DejaVuSans-48"/>
      </g>
     </g>
    </g>
    <g id="xtick_3">
     <g id="line2d_5">
      <path clip-path="url(#p26d5ef3476)" d="M 222.640154 258.945354 
L 222.640154 2.834646 
" style="fill:none;stroke:#000000;stroke-linecap:square;stroke-opacity:0.1;stroke-width:0.5;"/>
     </g>
     <g id="line2d_6">
      <g>
       <use style="stroke:#000000;stroke-width:0.8;" x="222.640154" xlink:href="#meea013f5ad" y="258.945354"/>
      </g>
     </g>
     <g id="text_3">
      <!-- 500 -->
      <g transform="translate(215.005154 268.524104)scale(0.08 -0.08)">
       <use xlink:href="#DejaVuSans-53"/>
       <use x="63.623047" xlink:href="#DejaVuSans-48"/>
       <use x="127.246094" xlink:href="#DejaVuSans-48"/>
      </g>
     </g>
    </g>
    <g id="xtick_4">
     <g id="line2d_7">
      <path clip-path="url(#p26d5ef3476)" d="M 320.063216 258.945354 
L 320.063216 2.834646 
" style="fill:none;stroke:#000000;stroke-linecap:square;stroke-opacity:0.1;stroke-width:0.5;"/>
     </g>
     <g id="line2d_8">
      <g>
       <use style="stroke:#000000;stroke-width:0.8;" x="320.063216" xlink:href="#meea013f5ad" y="258.945354"/>
      </g>
     </g>
     <g id="text_4">
      <!-- 750 -->
      <defs>
       <path d="M 8.203125 72.90625 
L 55.078125 72.90625 
L 55.078125 68.703125 
L 28.609375 0 
L 18.3125 0 
L 43.21875 64.59375 
L 8.203125 64.59375 
z
" id="DejaVuSans-55"/>
      </defs>
      <g transform="translate(312.428216 268.524104)scale(0.08 -0.08)">
       <use xlink:href="#DejaVuSans-55"/>
       <use x="63.623047" xlink:href="#DejaVuSans-53"/>
       <use x="127.246094" xlink:href="#DejaVuSans-48"/>
      </g>
     </g>
    </g>
    <g id="xtick_5">
     <g id="line2d_9">
      <path clip-path="url(#p26d5ef3476)" d="M 417.486278 258.945354 
L 417.486278 2.834646 
" style="fill:none;stroke:#000000;stroke-linecap:square;stroke-opacity:0.1;stroke-width:0.5;"/>
     </g>
     <g id="line2d_10">
      <g>
       <use style="stroke:#000000;stroke-width:0.8;" x="417.486278" xlink:href="#meea013f5ad" y="258.945354"/>
      </g>
     </g>
     <g id="text_5">
      <!-- 1000 -->
      <defs>
       <path d="M 12.40625 8.296875 
L 28.515625 8.296875 
L 28.515625 63.921875 
L 10.984375 60.40625 
L 10.984375 69.390625 
L 28.421875 72.90625 
L 38.28125 72.90625 
L 38.28125 8.296875 
L 54.390625 8.296875 
L 54.390625 0 
L 12.40625 0 
z
" id="DejaVuSans-49"/>
      </defs>
      <g transform="translate(407.306278 268.524104)scale(0.08 -0.08)">
       <use xlink:href="#DejaVuSans-49"/>
       <use x="63.623047" xlink:href="#DejaVuSans-48"/>
       <use x="127.246094" xlink:href="#DejaVuSans-48"/>
       <use x="190.869141" xlink:href="#DejaVuSans-48"/>
      </g>
     </g>
    </g>
    <g id="text_6">
     <!-- $k$ -->
     <defs>
      <path d="M 18.3125 75.984375 
L 27.296875 75.984375 
L 18.703125 31.6875 
L 49.515625 54.6875 
L 61.1875 54.6875 
L 26.8125 28.515625 
L 51.90625 0 
L 41.015625 0 
L 17.671875 26.703125 
L 12.5 0 
L 3.515625 0 
z
" id="DejaVuSans-Oblique-107"/>
     </defs>
     <g transform="translate(219.645 282.546136)scale(0.11 -0.11)">
      <use transform="translate(0 0.015625)" xlink:href="#DejaVuSans-Oblique-107"/>
     </g>
    </g>
   </g>
   <g id="matplotlib.axis_2">
    <g id="ytick_1">
     <g id="line2d_11">
      <path clip-path="url(#p26d5ef3476)" d="M 16.504646 251.696938 
L 429.165354 251.696938 
" style="fill:none;stroke:#000000;stroke-linecap:square;stroke-opacity:0.1;stroke-width:0.5;"/>
     </g>
     <g id="line2d_12">
      <defs>
       <path d="M 0 0 
L 3.5 0 
" id="mdd9ee1b400" style="stroke:#000000;stroke-width:0.8;"/>
      </defs>
      <g>
       <use style="stroke:#000000;stroke-width:0.8;" x="16.504646" xlink:href="#mdd9ee1b400" y="251.696938"/>
      </g>
     </g>
     <g id="text_7">
      <!-- 0 -->
      <g transform="translate(7.914646 254.736313)scale(0.08 -0.08)">
       <use xlink:href="#DejaVuSans-48"/>
      </g>
     </g>
    </g>
    <g id="ytick_2">
     <g id="line2d_13">
      <path clip-path="url(#p26d5ef3476)" d="M 16.504646 194.169825 
L 429.165354 194.169825 
" style="fill:none;stroke:#000000;stroke-linecap:square;stroke-opacity:0.1;stroke-width:0.5;"/>
     </g>
     <g id="line2d_14">
      <g>
       <use style="stroke:#000000;stroke-width:0.8;" x="16.504646" xlink:href="#mdd9ee1b400" y="194.169825"/>
      </g>
     </g>
     <g id="text_8">
      <!-- 10 -->
      <g transform="translate(2.824646 197.2092)scale(0.08 -0.08)">
       <use xlink:href="#DejaVuSans-49"/>
       <use x="63.623047" xlink:href="#DejaVuSans-48"/>
      </g>
     </g>
    </g>
    <g id="ytick_3">
     <g id="line2d_15">
      <path clip-path="url(#p26d5ef3476)" d="M 16.504646 136.642711 
L 429.165354 136.642711 
" style="fill:none;stroke:#000000;stroke-linecap:square;stroke-opacity:0.1;stroke-width:0.5;"/>
     </g>
     <g id="line2d_16">
      <g>
       <use style="stroke:#000000;stroke-width:0.8;" x="16.504646" xlink:href="#mdd9ee1b400" y="136.642711"/>
      </g>
     </g>
     <g id="text_9">
      <!-- 20 -->
      <g transform="translate(2.824646 139.682086)scale(0.08 -0.08)">
       <use xlink:href="#DejaVuSans-50"/>
       <use x="63.623047" xlink:href="#DejaVuSans-48"/>
      </g>
     </g>
    </g>
    <g id="ytick_4">
     <g id="line2d_17">
      <path clip-path="url(#p26d5ef3476)" d="M 16.504646 79.115598 
L 429.165354 79.115598 
" style="fill:none;stroke:#000000;stroke-linecap:square;stroke-opacity:0.1;stroke-width:0.5;"/>
     </g>
     <g id="line2d_18">
      <g>
       <use style="stroke:#000000;stroke-width:0.8;" x="16.504646" xlink:href="#mdd9ee1b400" y="79.115598"/>
      </g>
     </g>
     <g id="text_10">
      <!-- 30 -->
      <defs>
       <path d="M 40.578125 39.3125 
Q 47.65625 37.796875 51.625 33 
Q 55.609375 28.21875 55.609375 21.1875 
Q 55.609375 10.40625 48.1875 4.484375 
Q 40.765625 -1.421875 27.09375 -1.421875 
Q 22.515625 -1.421875 17.65625 -0.515625 
Q 12.796875 0.390625 7.625 2.203125 
L 7.625 11.71875 
Q 11.71875 9.328125 16.59375 8.109375 
Q 21.484375 6.890625 26.8125 6.890625 
Q 36.078125 6.890625 40.9375 10.546875 
Q 45.796875 14.203125 45.796875 21.1875 
Q 45.796875 27.640625 41.28125 31.265625 
Q 36.765625 34.90625 28.71875 34.90625 
L 20.21875 34.90625 
L 20.21875 43.015625 
L 29.109375 43.015625 
Q 36.375 43.015625 40.234375 45.921875 
Q 44.09375 48.828125 44.09375 54.296875 
Q 44.09375 59.90625 40.109375 62.90625 
Q 36.140625 65.921875 28.71875 65.921875 
Q 24.65625 65.921875 20.015625 65.03125 
Q 15.375 64.15625 9.8125 62.3125 
L 9.8125 71.09375 
Q 15.4375 72.65625 20.34375 73.4375 
Q 25.25 74.21875 29.59375 74.21875 
Q 40.828125 74.21875 47.359375 69.109375 
Q 53.90625 64.015625 53.90625 55.328125 
Q 53.90625 49.265625 50.4375 45.09375 
Q 46.96875 40.921875 40.578125 39.3125 
z
" id="DejaVuSans-51"/>
      </defs>
      <g transform="translate(2.824646 82.154973)scale(0.08 -0.08)">
       <use xlink:href="#DejaVuSans-51"/>
       <use x="63.623047" xlink:href="#DejaVuSans-48"/>
      </g>
     </g>
    </g>
    <g id="ytick_5">
     <g id="line2d_19">
      <path clip-path="url(#p26d5ef3476)" d="M 16.504646 21.588485 
L 429.165354 21.588485 
" style="fill:none;stroke:#000000;stroke-linecap:square;stroke-opacity:0.1;stroke-width:0.5;"/>
     </g>
     <g id="line2d_20">
      <g>
       <use style="stroke:#000000;stroke-width:0.8;" x="16.504646" xlink:href="#mdd9ee1b400" y="21.588485"/>
      </g>
     </g>
     <g id="text_11">
      <!-- 40 -->
      <defs>
       <path d="M 37.796875 64.3125 
L 12.890625 25.390625 
L 37.796875 25.390625 
z
M 35.203125 72.90625 
L 47.609375 72.90625 
L 47.609375 25.390625 
L 58.015625 25.390625 
L 58.015625 17.1875 
L 47.609375 17.1875 
L 47.609375 0 
L 37.796875 0 
L 37.796875 17.1875 
L 4.890625 17.1875 
L 4.890625 26.703125 
z
" id="DejaVuSans-52"/>
      </defs>
      <g transform="translate(2.824646 24.62786)scale(0.08 -0.08)">
       <use xlink:href="#DejaVuSans-52"/>
       <use x="63.623047" xlink:href="#DejaVuSans-48"/>
      </g>
     </g>
    </g>
   </g>
   <g id="line2d_21">
    <path clip-path="url(#p26d5ef3476)" d="M 28.183722 251.696938 
L 28.573415 245.944227 
L 28.963107 245.944227 
L 29.352799 251.696938 
L 29.742491 251.696938 
L 30.132184 245.944227 
L 30.521876 245.944227 
L 30.911568 240.191515 
L 31.30126 240.191515 
L 31.690953 234.438804 
L 32.080645 234.438804 
L 32.470337 240.191515 
L 32.860029 240.191515 
L 33.249722 234.438804 
L 33.639414 234.438804 
L 34.029106 251.696938 
L 34.418798 251.696938 
L 34.808491 245.944227 
L 35.198183 245.944227 
L 35.587875 251.696938 
L 35.977567 251.696938 
L 36.36726 245.944227 
L 36.756952 245.944227 
L 37.146644 240.191515 
L 37.536336 240.191515 
L 37.926029 234.438804 
L 38.315721 234.438804 
L 38.705413 240.191515 
L 39.095105 240.191515 
L 39.484798 234.438804 
L 39.87449 234.438804 
L 40.264182 228.686093 
L 40.653874 228.686093 
L 41.043566 222.933381 
L 41.433259 222.933381 
L 41.822951 228.686093 
L 42.212643 228.686093 
L 42.602335 222.933381 
L 42.992028 222.933381 
L 43.38172 217.18067 
L 43.771412 217.18067 
L 44.161104 211.427959 
L 44.550797 211.427959 
L 44.940489 217.18067 
L 45.330181 217.18067 
L 45.719873 211.427959 
L 46.109566 211.427959 
L 46.499258 228.686093 
L 46.88895 228.686093 
L 47.278642 222.933381 
L 47.668335 222.933381 
L 48.058027 228.686093 
L 48.447719 228.686093 
L 48.837411 222.933381 
L 49.227104 222.933381 
L 49.616796 217.18067 
L 50.006488 217.18067 
L 50.39618 211.427959 
L 50.785873 211.427959 
L 51.175565 217.18067 
L 51.565257 217.18067 
L 51.954949 211.427959 
L 52.344642 211.427959 
L 52.734334 251.696938 
L 53.124026 251.696938 
L 53.513718 245.944227 
L 53.903411 245.944227 
L 54.293103 251.696938 
L 54.682795 251.696938 
L 55.072487 245.944227 
L 55.46218 245.944227 
L 55.851872 240.191515 
L 56.241564 240.191515 
L 56.631256 234.438804 
L 57.020949 234.438804 
L 57.410641 240.191515 
L 57.800333 240.191515 
L 58.190025 234.438804 
L 58.579718 234.438804 
L 58.96941 251.696938 
L 59.359102 251.696938 
L 59.748794 245.944227 
L 60.138487 245.944227 
L 60.528179 251.696938 
L 60.917871 251.696938 
L 61.307563 245.944227 
L 61.697256 245.944227 
L 62.086948 240.191515 
L 62.47664 240.191515 
L 62.866332 234.438804 
L 63.256025 234.438804 
L 63.645717 240.191515 
L 64.035409 240.191515 
L 64.425101 234.438804 
L 64.814794 234.438804 
L 65.204486 228.686093 
L 65.594178 228.686093 
L 65.98387 222.933381 
L 66.373563 222.933381 
L 66.763255 228.686093 
L 67.152947 228.686093 
L 67.542639 222.933381 
L 67.932332 222.933381 
L 68.322024 217.18067 
L 68.711716 217.18067 
L 69.101408 211.427959 
L 69.491101 211.427959 
L 69.880793 217.18067 
L 70.270485 217.18067 
L 70.660177 211.427959 
L 71.04987 211.427959 
L 71.439562 228.686093 
L 71.829254 228.686093 
L 72.218946 222.933381 
L 72.608639 222.933381 
L 72.998331 228.686093 
L 73.388023 228.686093 
L 73.777715 222.933381 
L 74.167408 222.933381 
L 74.5571 217.18067 
L 74.946792 217.18067 
L 75.336484 211.427959 
L 75.726177 211.427959 
L 76.115869 217.18067 
L 76.505561 217.18067 
L 76.895253 211.427959 
L 77.284946 211.427959 
L 77.674638 205.675247 
L 78.06433 205.675247 
L 78.454022 199.922536 
L 78.843715 199.922536 
L 79.233407 205.675247 
L 79.623099 205.675247 
L 80.012791 199.922536 
L 80.402484 199.922536 
L 80.792176 194.169825 
L 81.181868 194.169825 
L 81.57156 188.417113 
L 81.961252 188.417113 
L 82.350945 194.169825 
L 82.740637 194.169825 
L 83.130329 188.417113 
L 83.520021 188.417113 
L 83.909714 205.675247 
L 84.299406 205.675247 
L 84.689098 199.922536 
L 85.07879 199.922536 
L 85.468483 205.675247 
L 85.858175 205.675247 
L 86.247867 199.922536 
L 86.637559 199.922536 
L 87.027252 194.169825 
L 87.416944 194.169825 
L 87.806636 188.417113 
L 88.196328 188.417113 
L 88.586021 194.169825 
L 88.975713 194.169825 
L 89.365405 188.417113 
L 89.755097 188.417113 
L 90.14479 182.664402 
L 90.534482 182.664402 
L 90.924174 176.911691 
L 91.313866 176.911691 
L 91.703559 182.664402 
L 92.093251 182.664402 
L 92.482943 176.911691 
L 92.872635 176.911691 
L 93.262328 171.158979 
L 93.65202 171.158979 
L 94.041712 165.406268 
L 94.431404 165.406268 
L 94.821097 171.158979 
L 95.210789 171.158979 
L 95.600481 165.406268 
L 95.990173 165.406268 
L 96.379866 182.664402 
L 96.769558 182.664402 
L 97.15925 176.911691 
L 97.548942 176.911691 
L 97.938635 182.664402 
L 98.328327 182.664402 
L 98.718019 176.911691 
L 99.107711 176.911691 
L 99.497404 171.158979 
L 99.887096 171.158979 
L 100.276788 165.406268 
L 100.66648 165.406268 
L 101.056173 171.158979 
L 101.445865 171.158979 
L 101.835557 165.406268 
L 102.225249 165.406268 
L 102.614942 205.675247 
L 103.004634 205.675247 
L 103.394326 199.922536 
L 103.784018 199.922536 
L 104.173711 205.675247 
L 104.563403 205.675247 
L 104.953095 199.922536 
L 105.342787 199.922536 
L 105.73248 194.169825 
L 106.122172 194.169825 
L 106.511864 188.417113 
L 106.901556 188.417113 
L 107.291249 194.169825 
L 107.680941 194.169825 
L 108.070633 188.417113 
L 108.460325 188.417113 
L 108.850018 205.675247 
L 109.23971 205.675247 
L 109.629402 199.922536 
L 110.019094 199.922536 
L 110.408787 205.675247 
L 110.798479 205.675247 
L 111.188171 199.922536 
L 111.577863 199.922536 
L 111.967556 194.169825 
L 112.357248 194.169825 
L 112.74694 188.417113 
L 113.136632 188.417113 
L 113.526325 194.169825 
L 113.916017 194.169825 
L 114.305709 188.417113 
L 114.695401 188.417113 
L 115.085094 182.664402 
L 115.474786 182.664402 
L 115.864478 176.911691 
L 116.25417 176.911691 
L 116.643863 182.664402 
L 117.033555 182.664402 
L 117.423247 176.911691 
L 117.812939 176.911691 
L 118.202632 171.158979 
L 118.592324 171.158979 
L 118.982016 165.406268 
L 119.371708 165.406268 
L 119.761401 171.158979 
L 120.151093 171.158979 
L 120.540785 165.406268 
L 120.930477 165.406268 
L 121.32017 182.664402 
L 121.709862 182.664402 
L 122.099554 176.911691 
L 122.489246 176.911691 
L 122.878938 182.664402 
L 123.268631 182.664402 
L 123.658323 176.911691 
L 124.048015 176.911691 
L 124.437707 171.158979 
L 124.8274 171.158979 
L 125.217092 165.406268 
L 125.606784 165.406268 
L 125.996476 171.158979 
L 126.386169 171.158979 
L 126.775861 165.406268 
L 127.165553 165.406268 
L 127.555245 251.696938 
L 127.944938 251.696938 
L 128.33463 245.944227 
L 128.724322 245.944227 
L 129.114014 251.696938 
L 129.503707 251.696938 
L 129.893399 245.944227 
L 130.283091 245.944227 
L 130.672783 240.191515 
L 131.062476 240.191515 
L 131.452168 234.438804 
L 131.84186 234.438804 
L 132.231552 240.191515 
L 132.621245 240.191515 
L 133.010937 234.438804 
L 133.400629 234.438804 
L 133.790321 251.696938 
L 134.180014 251.696938 
L 134.569706 245.944227 
L 134.959398 245.944227 
L 135.34909 251.696938 
L 135.738783 251.696938 
L 136.128475 245.944227 
L 136.518167 245.944227 
L 136.907859 240.191515 
L 137.297552 240.191515 
L 137.687244 234.438804 
L 138.076936 234.438804 
L 138.466628 240.191515 
L 138.856321 240.191515 
L 139.246013 234.438804 
L 139.635705 234.438804 
L 140.025397 228.686093 
L 140.41509 228.686093 
L 140.804782 222.933381 
L 141.194474 222.933381 
L 141.584166 228.686093 
L 141.973859 228.686093 
L 142.363551 222.933381 
L 142.753243 222.933381 
L 143.142935 217.18067 
L 143.532628 217.18067 
L 143.92232 211.427959 
L 144.312012 211.427959 
L 144.701704 217.18067 
L 145.091397 217.18067 
L 145.481089 211.427959 
L 145.870781 211.427959 
L 146.260473 228.686093 
L 146.650166 228.686093 
L 147.039858 222.933381 
L 147.42955 222.933381 
L 147.819242 228.686093 
L 148.208935 228.686093 
L 148.598627 222.933381 
L 148.988319 222.933381 
L 149.378011 217.18067 
L 149.767704 217.18067 
L 150.157396 211.427959 
L 150.547088 211.427959 
L 150.93678 217.18067 
L 151.326473 217.18067 
L 151.716165 211.427959 
L 152.105857 211.427959 
L 152.495549 251.696938 
L 152.885242 251.696938 
L 153.274934 245.944227 
L 153.664626 245.944227 
L 154.054318 251.696938 
L 154.444011 251.696938 
L 154.833703 245.944227 
L 155.223395 245.944227 
L 155.613087 240.191515 
L 156.00278 240.191515 
L 156.392472 234.438804 
L 156.782164 234.438804 
L 157.171856 240.191515 
L 157.561549 240.191515 
L 157.951241 234.438804 
L 158.340933 234.438804 
L 158.730625 251.696938 
L 159.120318 251.696938 
L 159.51001 245.944227 
L 159.899702 245.944227 
L 160.289394 251.696938 
L 160.679087 251.696938 
L 161.068779 245.944227 
L 161.458471 245.944227 
L 161.848163 240.191515 
L 162.237855 240.191515 
L 162.627548 234.438804 
L 163.01724 234.438804 
L 163.406932 240.191515 
L 163.796624 240.191515 
L 164.186317 234.438804 
L 164.576009 234.438804 
L 164.965701 228.686093 
L 165.355393 228.686093 
L 165.745086 222.933381 
L 166.134778 222.933381 
L 166.52447 228.686093 
L 166.914162 228.686093 
L 167.303855 222.933381 
L 167.693547 222.933381 
L 168.083239 217.18067 
L 168.472931 217.18067 
L 168.862624 211.427959 
L 169.252316 211.427959 
L 169.642008 217.18067 
L 170.0317 217.18067 
L 170.421393 211.427959 
L 170.811085 211.427959 
L 171.200777 228.686093 
L 171.590469 228.686093 
L 171.980162 222.933381 
L 172.369854 222.933381 
L 172.759546 228.686093 
L 173.149238 228.686093 
L 173.538931 222.933381 
L 173.928623 222.933381 
L 174.318315 217.18067 
L 174.708007 217.18067 
L 175.0977 211.427959 
L 175.487392 211.427959 
L 175.877084 217.18067 
L 176.266776 217.18067 
L 176.656469 211.427959 
L 177.046161 211.427959 
L 177.435853 205.675247 
L 177.825545 205.675247 
L 178.215238 199.922536 
L 178.60493 199.922536 
L 178.994622 205.675247 
L 179.384314 205.675247 
L 179.774007 199.922536 
L 180.163699 199.922536 
L 180.553391 194.169825 
L 180.943083 194.169825 
L 181.332776 188.417113 
L 181.722468 188.417113 
L 182.11216 194.169825 
L 182.501852 194.169825 
L 182.891545 188.417113 
L 183.281237 188.417113 
L 183.670929 205.675247 
L 184.060621 205.675247 
L 184.450314 199.922536 
L 184.840006 199.922536 
L 185.229698 205.675247 
L 185.61939 205.675247 
L 186.009083 199.922536 
L 186.398775 199.922536 
L 186.788467 194.169825 
L 187.178159 194.169825 
L 187.567852 188.417113 
L 187.957544 188.417113 
L 188.347236 194.169825 
L 188.736928 194.169825 
L 189.126621 188.417113 
L 189.516313 188.417113 
L 189.906005 182.664402 
L 190.295697 182.664402 
L 190.68539 176.911691 
L 191.075082 176.911691 
L 191.464774 182.664402 
L 191.854466 182.664402 
L 192.244159 176.911691 
L 192.633851 176.911691 
L 193.023543 171.158979 
L 193.413235 171.158979 
L 193.802928 165.406268 
L 194.19262 165.406268 
L 194.582312 171.158979 
L 194.972004 171.158979 
L 195.361697 165.406268 
L 195.751389 165.406268 
L 196.141081 182.664402 
L 196.530773 182.664402 
L 196.920466 176.911691 
L 197.310158 176.911691 
L 197.69985 182.664402 
L 198.089542 182.664402 
L 198.479235 176.911691 
L 198.868927 176.911691 
L 199.258619 171.158979 
L 199.648311 171.158979 
L 200.038004 165.406268 
L 200.427696 165.406268 
L 200.817388 171.158979 
L 201.20708 171.158979 
L 201.596773 165.406268 
L 201.986465 165.406268 
L 202.376157 205.675247 
L 202.765849 205.675247 
L 203.155541 199.922536 
L 203.545234 199.922536 
L 203.934926 205.675247 
L 204.324618 205.675247 
L 204.71431 199.922536 
L 205.104003 199.922536 
L 205.493695 194.169825 
L 205.883387 194.169825 
L 206.273079 188.417113 
L 206.662772 188.417113 
L 207.052464 194.169825 
L 207.442156 194.169825 
L 207.831848 188.417113 
L 208.221541 188.417113 
L 208.611233 205.675247 
L 209.000925 205.675247 
L 209.390617 199.922536 
L 209.78031 199.922536 
L 210.170002 205.675247 
L 210.559694 205.675247 
L 210.949386 199.922536 
L 211.339079 199.922536 
L 211.728771 194.169825 
L 212.118463 194.169825 
L 212.508155 188.417113 
L 212.897848 188.417113 
L 213.28754 194.169825 
L 213.677232 194.169825 
L 214.066924 188.417113 
L 214.456617 188.417113 
L 214.846309 182.664402 
L 215.236001 182.664402 
L 215.625693 176.911691 
L 216.015386 176.911691 
L 216.405078 182.664402 
L 216.79477 182.664402 
L 217.184462 176.911691 
L 217.574155 176.911691 
L 217.963847 171.158979 
L 218.353539 171.158979 
L 218.743231 165.406268 
L 219.132924 165.406268 
L 219.522616 171.158979 
L 219.912308 171.158979 
L 220.302 165.406268 
L 220.691693 165.406268 
L 221.081385 182.664402 
L 221.471077 182.664402 
L 221.860769 176.911691 
L 222.250462 176.911691 
L 222.640154 182.664402 
L 223.029846 182.664402 
L 223.419538 176.911691 
L 223.809231 176.911691 
L 224.198923 171.158979 
L 224.588615 171.158979 
L 224.978307 165.406268 
L 225.368 165.406268 
L 225.757692 171.158979 
L 226.147384 171.158979 
L 226.537076 165.406268 
L 226.926769 165.406268 
L 227.316461 159.653557 
L 227.706153 159.653557 
L 228.095845 153.900845 
L 228.485538 153.900845 
L 228.87523 159.653557 
L 229.264922 159.653557 
L 229.654614 153.900845 
L 230.044307 153.900845 
L 230.433999 148.148134 
L 230.823691 148.148134 
L 231.213383 142.395423 
L 231.603076 142.395423 
L 231.992768 148.148134 
L 232.38246 148.148134 
L 232.772152 142.395423 
L 233.161845 142.395423 
L 233.551537 159.653557 
L 233.941229 159.653557 
L 234.330921 153.900845 
L 234.720614 153.900845 
L 235.110306 159.653557 
L 235.499998 159.653557 
L 235.88969 153.900845 
L 236.279383 153.900845 
L 236.669075 148.148134 
L 237.058767 148.148134 
L 237.448459 142.395423 
L 237.838152 142.395423 
L 238.227844 148.148134 
L 238.617536 148.148134 
L 239.007228 142.395423 
L 239.396921 142.395423 
L 239.786613 136.642711 
L 240.176305 136.642711 
L 240.565997 130.89 
L 240.95569 130.89 
L 241.345382 136.642711 
L 241.735074 136.642711 
L 242.124766 130.89 
L 242.514459 130.89 
L 242.904151 125.137289 
L 243.293843 125.137289 
L 243.683535 119.384577 
L 244.073227 119.384577 
L 244.46292 125.137289 
L 244.852612 125.137289 
L 245.242304 119.384577 
L 245.631996 119.384577 
L 246.021689 136.642711 
L 246.411381 136.642711 
L 246.801073 130.89 
L 247.190765 130.89 
L 247.580458 136.642711 
L 247.97015 136.642711 
L 248.359842 130.89 
L 248.749534 130.89 
L 249.139227 125.137289 
L 249.528919 125.137289 
L 249.918611 119.384577 
L 250.308303 119.384577 
L 250.697996 125.137289 
L 251.087688 125.137289 
L 251.47738 119.384577 
L 251.867072 119.384577 
L 252.256765 159.653557 
L 252.646457 159.653557 
L 253.036149 153.900845 
L 253.425841 153.900845 
L 253.815534 159.653557 
L 254.205226 159.653557 
L 254.594918 153.900845 
L 254.98461 153.900845 
L 255.374303 148.148134 
L 255.763995 148.148134 
L 256.153687 142.395423 
L 256.543379 142.395423 
L 256.933072 148.148134 
L 257.322764 148.148134 
L 257.712456 142.395423 
L 258.102148 142.395423 
L 258.491841 159.653557 
L 258.881533 159.653557 
L 259.271225 153.900845 
L 259.660917 153.900845 
L 260.05061 159.653557 
L 260.440302 159.653557 
L 260.829994 153.900845 
L 261.219686 153.900845 
L 261.609379 148.148134 
L 261.999071 148.148134 
L 262.388763 142.395423 
L 262.778455 142.395423 
L 263.168148 148.148134 
L 263.55784 148.148134 
L 263.947532 142.395423 
L 264.337224 142.395423 
L 264.726917 136.642711 
L 265.116609 136.642711 
L 265.506301 130.89 
L 265.895993 130.89 
L 266.285686 136.642711 
L 266.675378 136.642711 
L 267.06507 130.89 
L 267.454762 130.89 
L 267.844455 125.137289 
L 268.234147 125.137289 
L 268.623839 119.384577 
L 269.013531 119.384577 
L 269.403224 125.137289 
L 269.792916 125.137289 
L 270.182608 119.384577 
L 270.5723 119.384577 
L 270.961993 136.642711 
L 271.351685 136.642711 
L 271.741377 130.89 
L 272.131069 130.89 
L 272.520762 136.642711 
L 272.910454 136.642711 
L 273.300146 130.89 
L 273.689838 130.89 
L 274.079531 125.137289 
L 274.469223 125.137289 
L 274.858915 119.384577 
L 275.248607 119.384577 
L 275.6383 125.137289 
L 276.027992 125.137289 
L 276.417684 119.384577 
L 276.807376 119.384577 
L 277.197069 113.631866 
L 277.586761 113.631866 
L 277.976453 107.879155 
L 278.366145 107.879155 
L 278.755838 113.631866 
L 279.14553 113.631866 
L 279.535222 107.879155 
L 279.924914 107.879155 
L 280.314607 102.126443 
L 280.704299 102.126443 
L 281.093991 96.373732 
L 281.483683 96.373732 
L 281.873376 102.126443 
L 282.263068 102.126443 
L 282.65276 96.373732 
L 283.042452 96.373732 
L 283.432145 113.631866 
L 283.821837 113.631866 
L 284.211529 107.879155 
L 284.601221 107.879155 
L 284.990913 113.631866 
L 285.380606 113.631866 
L 285.770298 107.879155 
L 286.15999 107.879155 
L 286.549682 102.126443 
L 286.939375 102.126443 
L 287.329067 96.373732 
L 287.718759 96.373732 
L 288.108451 102.126443 
L 288.498144 102.126443 
L 288.887836 96.373732 
L 289.277528 96.373732 
L 289.66722 90.621021 
L 290.056913 90.621021 
L 290.446605 84.868309 
L 290.836297 84.868309 
L 291.225989 90.621021 
L 291.615682 90.621021 
L 292.005374 84.868309 
L 292.395066 84.868309 
L 292.784758 79.115598 
L 293.174451 79.115598 
L 293.564143 73.362887 
L 293.953835 73.362887 
L 294.343527 79.115598 
L 294.73322 79.115598 
L 295.122912 73.362887 
L 295.512604 73.362887 
L 295.902296 90.621021 
L 296.291989 90.621021 
L 296.681681 84.868309 
L 297.071373 84.868309 
L 297.461065 90.621021 
L 297.850758 90.621021 
L 298.24045 84.868309 
L 298.630142 84.868309 
L 299.019834 79.115598 
L 299.409527 79.115598 
L 299.799219 73.362887 
L 300.188911 73.362887 
L 300.578603 79.115598 
L 300.968296 79.115598 
L 301.357988 73.362887 
L 301.74768 73.362887 
L 302.137372 113.631866 
L 302.527065 113.631866 
L 302.916757 107.879155 
L 303.306449 107.879155 
L 303.696141 113.631866 
L 304.085834 113.631866 
L 304.475526 107.879155 
L 304.865218 107.879155 
L 305.25491 102.126443 
L 305.644603 102.126443 
L 306.034295 96.373732 
L 306.423987 96.373732 
L 306.813679 102.126443 
L 307.203372 102.126443 
L 307.593064 96.373732 
L 307.982756 96.373732 
L 308.372448 113.631866 
L 308.762141 113.631866 
L 309.151833 107.879155 
L 309.541525 107.879155 
L 309.931217 113.631866 
L 310.32091 113.631866 
L 310.710602 107.879155 
L 311.100294 107.879155 
L 311.489986 102.126443 
L 311.879679 102.126443 
L 312.269371 96.373732 
L 312.659063 96.373732 
L 313.048755 102.126443 
L 313.438448 102.126443 
L 313.82814 96.373732 
L 314.217832 96.373732 
L 314.607524 90.621021 
L 314.997217 90.621021 
L 315.386909 84.868309 
L 315.776601 84.868309 
L 316.166293 90.621021 
L 316.555986 90.621021 
L 316.945678 84.868309 
L 317.33537 84.868309 
L 317.725062 79.115598 
L 318.114755 79.115598 
L 318.504447 73.362887 
L 318.894139 73.362887 
L 319.283831 79.115598 
L 319.673524 79.115598 
L 320.063216 73.362887 
L 320.452908 73.362887 
L 320.8426 90.621021 
L 321.232293 90.621021 
L 321.621985 84.868309 
L 322.011677 84.868309 
L 322.401369 90.621021 
L 322.791062 90.621021 
L 323.180754 84.868309 
L 323.570446 84.868309 
L 323.960138 79.115598 
L 324.34983 79.115598 
L 324.739523 73.362887 
L 325.129215 73.362887 
L 325.518907 79.115598 
L 325.908599 79.115598 
L 326.298292 73.362887 
L 326.687984 73.362887 
L 327.077676 159.653557 
L 327.467368 159.653557 
L 327.857061 153.900845 
L 328.246753 153.900845 
L 328.636445 159.653557 
L 329.026137 159.653557 
L 329.41583 153.900845 
L 329.805522 153.900845 
L 330.195214 148.148134 
L 330.584906 148.148134 
L 330.974599 142.395423 
L 331.364291 142.395423 
L 331.753983 148.148134 
L 332.143675 148.148134 
L 332.533368 142.395423 
L 332.92306 142.395423 
L 333.312752 159.653557 
L 333.702444 159.653557 
L 334.092137 153.900845 
L 334.481829 153.900845 
L 334.871521 159.653557 
L 335.261213 159.653557 
L 335.650906 153.900845 
L 336.040598 153.900845 
L 336.43029 148.148134 
L 336.819982 148.148134 
L 337.209675 142.395423 
L 337.599367 142.395423 
L 337.989059 148.148134 
L 338.378751 148.148134 
L 338.768444 142.395423 
L 339.158136 142.395423 
L 339.547828 136.642711 
L 339.93752 136.642711 
L 340.327213 130.89 
L 340.716905 130.89 
L 341.106597 136.642711 
L 341.496289 136.642711 
L 341.885982 130.89 
L 342.275674 130.89 
L 342.665366 125.137289 
L 343.055058 125.137289 
L 343.444751 119.384577 
L 343.834443 119.384577 
L 344.224135 125.137289 
L 344.613827 125.137289 
L 345.00352 119.384577 
L 345.393212 119.384577 
L 345.782904 136.642711 
L 346.172596 136.642711 
L 346.562289 130.89 
L 346.951981 130.89 
L 347.341673 136.642711 
L 347.731365 136.642711 
L 348.121058 130.89 
L 348.51075 130.89 
L 348.900442 125.137289 
L 349.290134 125.137289 
L 349.679827 119.384577 
L 350.069519 119.384577 
L 350.459211 125.137289 
L 350.848903 125.137289 
L 351.238596 119.384577 
L 351.628288 119.384577 
L 352.01798 159.653557 
L 352.407672 159.653557 
L 352.797365 153.900845 
L 353.187057 153.900845 
L 353.576749 159.653557 
L 353.966441 159.653557 
L 354.356134 153.900845 
L 354.745826 153.900845 
L 355.135518 148.148134 
L 355.52521 148.148134 
L 355.914903 142.395423 
L 356.304595 142.395423 
L 356.694287 148.148134 
L 357.083979 148.148134 
L 357.473672 142.395423 
L 357.863364 142.395423 
L 358.253056 159.653557 
L 358.642748 159.653557 
L 359.032441 153.900845 
L 359.422133 153.900845 
L 359.811825 159.653557 
L 360.201517 159.653557 
L 360.59121 153.900845 
L 360.980902 153.900845 
L 361.370594 148.148134 
L 361.760286 148.148134 
L 362.149979 142.395423 
L 362.539671 142.395423 
L 362.929363 148.148134 
L 363.319055 148.148134 
L 363.708748 142.395423 
L 364.09844 142.395423 
L 364.488132 136.642711 
L 364.877824 136.642711 
L 365.267516 130.89 
L 365.657209 130.89 
L 366.046901 136.642711 
L 366.436593 136.642711 
L 366.826285 130.89 
L 367.215978 130.89 
L 367.60567 125.137289 
L 367.995362 125.137289 
L 368.385054 119.384577 
L 368.774747 119.384577 
L 369.164439 125.137289 
L 369.554131 125.137289 
L 369.943823 119.384577 
L 370.333516 119.384577 
L 370.723208 136.642711 
L 371.1129 136.642711 
L 371.502592 130.89 
L 371.892285 130.89 
L 372.281977 136.642711 
L 372.671669 136.642711 
L 373.061361 130.89 
L 373.451054 130.89 
L 373.840746 125.137289 
L 374.230438 125.137289 
L 374.62013 119.384577 
L 375.009823 119.384577 
L 375.399515 125.137289 
L 375.789207 125.137289 
L 376.178899 119.384577 
L 376.568592 119.384577 
L 376.958284 113.631866 
L 377.347976 113.631866 
L 377.737668 107.879155 
L 378.127361 107.879155 
L 378.517053 113.631866 
L 378.906745 113.631866 
L 379.296437 107.879155 
L 379.68613 107.879155 
L 380.075822 102.126443 
L 380.465514 102.126443 
L 380.855206 96.373732 
L 381.244899 96.373732 
L 381.634591 102.126443 
L 382.024283 102.126443 
L 382.413975 96.373732 
L 382.803668 96.373732 
L 383.19336 113.631866 
L 383.583052 113.631866 
L 383.972744 107.879155 
L 384.362437 107.879155 
L 384.752129 113.631866 
L 385.141821 113.631866 
L 385.531513 107.879155 
L 385.921206 107.879155 
L 386.310898 102.126443 
L 386.70059 102.126443 
L 387.090282 96.373732 
L 387.479975 96.373732 
L 387.869667 102.126443 
L 388.259359 102.126443 
L 388.649051 96.373732 
L 389.038744 96.373732 
L 389.428436 90.621021 
L 389.818128 90.621021 
L 390.20782 84.868309 
L 390.597513 84.868309 
L 390.987205 90.621021 
L 391.376897 90.621021 
L 391.766589 84.868309 
L 392.156282 84.868309 
L 392.545974 79.115598 
L 392.935666 79.115598 
L 393.325358 73.362887 
L 393.715051 73.362887 
L 394.104743 79.115598 
L 394.494435 79.115598 
L 394.884127 73.362887 
L 395.27382 73.362887 
L 395.663512 90.621021 
L 396.053204 90.621021 
L 396.442896 84.868309 
L 396.832589 84.868309 
L 397.222281 90.621021 
L 397.611973 90.621021 
L 398.001665 84.868309 
L 398.391358 84.868309 
L 398.78105 79.115598 
L 399.170742 79.115598 
L 399.560434 73.362887 
L 399.950127 73.362887 
L 400.339819 79.115598 
L 400.729511 79.115598 
L 401.119203 73.362887 
L 401.508896 73.362887 
L 401.898588 113.631866 
L 402.28828 113.631866 
L 402.677972 107.879155 
L 403.067665 107.879155 
L 403.457357 113.631866 
L 403.847049 113.631866 
L 404.236741 107.879155 
L 404.626434 107.879155 
L 405.016126 102.126443 
L 405.405818 102.126443 
L 405.79551 96.373732 
L 406.185202 96.373732 
L 406.574895 102.126443 
L 406.964587 102.126443 
L 407.354279 96.373732 
L 407.743971 96.373732 
L 408.133664 113.631866 
L 408.523356 113.631866 
L 408.913048 107.879155 
L 409.30274 107.879155 
L 409.692433 113.631866 
L 410.082125 113.631866 
L 410.471817 107.879155 
L 410.861509 107.879155 
L 411.251202 102.126443 
L 411.640894 102.126443 
L 412.030586 96.373732 
L 412.420278 96.373732 
L 412.809971 102.126443 
L 413.199663 102.126443 
L 413.589355 96.373732 
L 413.979047 96.373732 
L 414.36874 90.621021 
L 414.758432 90.621021 
L 415.148124 84.868309 
L 415.537816 84.868309 
L 415.927509 90.621021 
L 416.317201 90.621021 
L 416.706893 84.868309 
L 417.096585 84.868309 
L 417.486278 79.115598 
L 417.486278 79.115598 
" style="fill:none;stroke:#009afa;stroke-linecap:round;"/>
   </g>
   <g id="line2d_22">
    <path clip-path="url(#p26d5ef3476)" d="M 28.183722 251.696938 
L 28.963107 251.696938 
L 29.352799 245.944227 
L 30.521876 245.944227 
L 30.911568 251.696938 
L 32.080645 251.696938 
L 32.470337 245.944227 
L 33.639414 245.944227 
L 34.029106 240.191515 
L 35.198183 240.191515 
L 35.587875 234.438804 
L 36.756952 234.438804 
L 37.146644 240.191515 
L 38.315721 240.191515 
L 38.705413 234.438804 
L 39.87449 234.438804 
L 40.264182 251.696938 
L 41.433259 251.696938 
L 41.822951 245.944227 
L 42.992028 245.944227 
L 43.38172 251.696938 
L 44.550797 251.696938 
L 44.940489 245.944227 
L 46.109566 245.944227 
L 46.499258 240.191515 
L 47.668335 240.191515 
L 48.058027 234.438804 
L 49.227104 234.438804 
L 49.616796 240.191515 
L 50.785873 240.191515 
L 51.175565 234.438804 
L 52.344642 234.438804 
L 52.734334 228.686093 
L 53.903411 228.686093 
L 54.293103 222.933381 
L 55.46218 222.933381 
L 55.851872 228.686093 
L 57.020949 228.686093 
L 57.410641 222.933381 
L 58.579718 222.933381 
L 58.96941 217.18067 
L 60.138487 217.18067 
L 60.528179 211.427959 
L 61.697256 211.427959 
L 62.086948 217.18067 
L 63.256025 217.18067 
L 63.645717 211.427959 
L 64.814794 211.427959 
L 65.204486 228.686093 
L 66.373563 228.686093 
L 66.763255 222.933381 
L 67.932332 222.933381 
L 68.322024 228.686093 
L 69.491101 228.686093 
L 69.880793 222.933381 
L 71.04987 222.933381 
L 71.439562 217.18067 
L 72.608639 217.18067 
L 72.998331 211.427959 
L 74.167408 211.427959 
L 74.5571 217.18067 
L 75.726177 217.18067 
L 76.115869 211.427959 
L 77.284946 211.427959 
L 77.674638 251.696938 
L 78.843715 251.696938 
L 79.233407 245.944227 
L 80.402484 245.944227 
L 80.792176 251.696938 
L 81.961252 251.696938 
L 82.350945 245.944227 
L 83.520021 245.944227 
L 83.909714 240.191515 
L 85.07879 240.191515 
L 85.468483 234.438804 
L 86.637559 234.438804 
L 87.027252 240.191515 
L 88.196328 240.191515 
L 88.586021 234.438804 
L 89.755097 234.438804 
L 90.14479 251.696938 
L 91.313866 251.696938 
L 91.703559 245.944227 
L 92.872635 245.944227 
L 93.262328 251.696938 
L 94.431404 251.696938 
L 94.821097 245.944227 
L 95.990173 245.944227 
L 96.379866 240.191515 
L 97.548942 240.191515 
L 97.938635 234.438804 
L 99.107711 234.438804 
L 99.497404 240.191515 
L 100.66648 240.191515 
L 101.056173 234.438804 
L 102.225249 234.438804 
L 102.614942 228.686093 
L 103.784018 228.686093 
L 104.173711 222.933381 
L 105.342787 222.933381 
L 105.73248 228.686093 
L 106.901556 228.686093 
L 107.291249 222.933381 
L 108.460325 222.933381 
L 108.850018 217.18067 
L 110.019094 217.18067 
L 110.408787 211.427959 
L 111.577863 211.427959 
L 111.967556 217.18067 
L 113.136632 217.18067 
L 113.526325 211.427959 
L 114.695401 211.427959 
L 115.085094 228.686093 
L 116.25417 228.686093 
L 116.643863 222.933381 
L 117.812939 222.933381 
L 118.202632 228.686093 
L 119.371708 228.686093 
L 119.761401 222.933381 
L 120.930477 222.933381 
L 121.32017 217.18067 
L 122.489246 217.18067 
L 122.878938 211.427959 
L 124.048015 211.427959 
L 124.437707 217.18067 
L 125.606784 217.18067 
L 125.996476 211.427959 
L 127.165553 211.427959 
L 127.555245 205.675247 
L 128.724322 205.675247 
L 129.114014 199.922536 
L 130.283091 199.922536 
L 130.672783 205.675247 
L 131.84186 205.675247 
L 132.231552 199.922536 
L 133.400629 199.922536 
L 133.790321 194.169825 
L 134.959398 194.169825 
L 135.34909 188.417113 
L 136.518167 188.417113 
L 136.907859 194.169825 
L 138.076936 194.169825 
L 138.466628 188.417113 
L 139.635705 188.417113 
L 140.025397 205.675247 
L 141.194474 205.675247 
L 141.584166 199.922536 
L 142.753243 199.922536 
L 143.142935 205.675247 
L 144.312012 205.675247 
L 144.701704 199.922536 
L 145.870781 199.922536 
L 146.260473 194.169825 
L 147.42955 194.169825 
L 147.819242 188.417113 
L 148.988319 188.417113 
L 149.378011 194.169825 
L 150.547088 194.169825 
L 150.93678 188.417113 
L 152.105857 188.417113 
L 152.495549 182.664402 
L 153.664626 182.664402 
L 154.054318 176.911691 
L 155.223395 176.911691 
L 155.613087 182.664402 
L 156.782164 182.664402 
L 157.171856 176.911691 
L 158.340933 176.911691 
L 158.730625 171.158979 
L 159.899702 171.158979 
L 160.289394 165.406268 
L 161.458471 165.406268 
L 161.848163 171.158979 
L 163.01724 171.158979 
L 163.406932 165.406268 
L 164.576009 165.406268 
L 164.965701 182.664402 
L 166.134778 182.664402 
L 166.52447 176.911691 
L 167.693547 176.911691 
L 168.083239 182.664402 
L 169.252316 182.664402 
L 169.642008 176.911691 
L 170.811085 176.911691 
L 171.200777 171.158979 
L 172.369854 171.158979 
L 172.759546 165.406268 
L 173.928623 165.406268 
L 174.318315 171.158979 
L 175.487392 171.158979 
L 175.877084 165.406268 
L 177.046161 165.406268 
L 177.435853 205.675247 
L 178.60493 205.675247 
L 178.994622 199.922536 
L 180.163699 199.922536 
L 180.553391 205.675247 
L 181.722468 205.675247 
L 182.11216 199.922536 
L 183.281237 199.922536 
L 183.670929 194.169825 
L 184.840006 194.169825 
L 185.229698 188.417113 
L 186.398775 188.417113 
L 186.788467 194.169825 
L 187.957544 194.169825 
L 188.347236 188.417113 
L 189.516313 188.417113 
L 189.906005 205.675247 
L 191.075082 205.675247 
L 191.464774 199.922536 
L 192.633851 199.922536 
L 193.023543 205.675247 
L 194.19262 205.675247 
L 194.582312 199.922536 
L 195.751389 199.922536 
L 196.141081 194.169825 
L 197.310158 194.169825 
L 197.69985 188.417113 
L 198.868927 188.417113 
L 199.258619 194.169825 
L 200.427696 194.169825 
L 200.817388 188.417113 
L 201.986465 188.417113 
L 202.376157 182.664402 
L 203.545234 182.664402 
L 203.934926 176.911691 
L 205.104003 176.911691 
L 205.493695 182.664402 
L 206.662772 182.664402 
L 207.052464 176.911691 
L 208.221541 176.911691 
L 208.611233 171.158979 
L 209.78031 171.158979 
L 210.170002 165.406268 
L 211.339079 165.406268 
L 211.728771 171.158979 
L 212.897848 171.158979 
L 213.28754 165.406268 
L 214.456617 165.406268 
L 214.846309 182.664402 
L 216.015386 182.664402 
L 216.405078 176.911691 
L 217.574155 176.911691 
L 217.963847 182.664402 
L 219.132924 182.664402 
L 219.522616 176.911691 
L 220.691693 176.911691 
L 221.081385 171.158979 
L 222.250462 171.158979 
L 222.640154 165.406268 
L 223.809231 165.406268 
L 224.198923 171.158979 
L 225.368 171.158979 
L 225.757692 165.406268 
L 226.926769 165.406268 
L 227.316461 251.696938 
L 228.485538 251.696938 
L 228.87523 245.944227 
L 230.044307 245.944227 
L 230.433999 251.696938 
L 231.603076 251.696938 
L 231.992768 245.944227 
L 233.161845 245.944227 
L 233.551537 240.191515 
L 234.720614 240.191515 
L 235.110306 234.438804 
L 236.279383 234.438804 
L 236.669075 240.191515 
L 237.838152 240.191515 
L 238.227844 234.438804 
L 239.396921 234.438804 
L 239.786613 251.696938 
L 240.95569 251.696938 
L 241.345382 245.944227 
L 242.514459 245.944227 
L 242.904151 251.696938 
L 244.073227 251.696938 
L 244.46292 245.944227 
L 245.631996 245.944227 
L 246.021689 240.191515 
L 247.190765 240.191515 
L 247.580458 234.438804 
L 248.749534 234.438804 
L 249.139227 240.191515 
L 250.308303 240.191515 
L 250.697996 234.438804 
L 251.867072 234.438804 
L 252.256765 228.686093 
L 253.425841 228.686093 
L 253.815534 222.933381 
L 254.98461 222.933381 
L 255.374303 228.686093 
L 256.543379 228.686093 
L 256.933072 222.933381 
L 258.102148 222.933381 
L 258.491841 217.18067 
L 259.660917 217.18067 
L 260.05061 211.427959 
L 261.219686 211.427959 
L 261.609379 217.18067 
L 262.778455 217.18067 
L 263.168148 211.427959 
L 264.337224 211.427959 
L 264.726917 228.686093 
L 265.895993 228.686093 
L 266.285686 222.933381 
L 267.454762 222.933381 
L 267.844455 228.686093 
L 269.013531 228.686093 
L 269.403224 222.933381 
L 270.5723 222.933381 
L 270.961993 217.18067 
L 272.131069 217.18067 
L 272.520762 211.427959 
L 273.689838 211.427959 
L 274.079531 217.18067 
L 275.248607 217.18067 
L 275.6383 211.427959 
L 276.807376 211.427959 
L 277.197069 251.696938 
L 278.366145 251.696938 
L 278.755838 245.944227 
L 279.924914 245.944227 
L 280.314607 251.696938 
L 281.483683 251.696938 
L 281.873376 245.944227 
L 283.042452 245.944227 
L 283.432145 240.191515 
L 284.601221 240.191515 
L 284.990913 234.438804 
L 286.15999 234.438804 
L 286.549682 240.191515 
L 287.718759 240.191515 
L 288.108451 234.438804 
L 289.277528 234.438804 
L 289.66722 251.696938 
L 290.836297 251.696938 
L 291.225989 245.944227 
L 292.395066 245.944227 
L 292.784758 251.696938 
L 293.953835 251.696938 
L 294.343527 245.944227 
L 295.512604 245.944227 
L 295.902296 240.191515 
L 297.071373 240.191515 
L 297.461065 234.438804 
L 298.630142 234.438804 
L 299.019834 240.191515 
L 300.188911 240.191515 
L 300.578603 234.438804 
L 301.74768 234.438804 
L 302.137372 228.686093 
L 303.306449 228.686093 
L 303.696141 222.933381 
L 304.865218 222.933381 
L 305.25491 228.686093 
L 306.423987 228.686093 
L 306.813679 222.933381 
L 307.982756 222.933381 
L 308.372448 217.18067 
L 309.541525 217.18067 
L 309.931217 211.427959 
L 311.100294 211.427959 
L 311.489986 217.18067 
L 312.659063 217.18067 
L 313.048755 211.427959 
L 314.217832 211.427959 
L 314.607524 228.686093 
L 315.776601 228.686093 
L 316.166293 222.933381 
L 317.33537 222.933381 
L 317.725062 228.686093 
L 318.894139 228.686093 
L 319.283831 222.933381 
L 320.452908 222.933381 
L 320.8426 217.18067 
L 322.011677 217.18067 
L 322.401369 211.427959 
L 323.570446 211.427959 
L 323.960138 217.18067 
L 325.129215 217.18067 
L 325.518907 211.427959 
L 326.687984 211.427959 
L 327.077676 205.675247 
L 328.246753 205.675247 
L 328.636445 199.922536 
L 329.805522 199.922536 
L 330.195214 205.675247 
L 331.364291 205.675247 
L 331.753983 199.922536 
L 332.92306 199.922536 
L 333.312752 194.169825 
L 334.481829 194.169825 
L 334.871521 188.417113 
L 336.040598 188.417113 
L 336.43029 194.169825 
L 337.599367 194.169825 
L 337.989059 188.417113 
L 339.158136 188.417113 
L 339.547828 205.675247 
L 340.716905 205.675247 
L 341.106597 199.922536 
L 342.275674 199.922536 
L 342.665366 205.675247 
L 343.834443 205.675247 
L 344.224135 199.922536 
L 345.393212 199.922536 
L 345.782904 194.169825 
L 346.951981 194.169825 
L 347.341673 188.417113 
L 348.51075 188.417113 
L 348.900442 194.169825 
L 350.069519 194.169825 
L 350.459211 188.417113 
L 351.628288 188.417113 
L 352.01798 182.664402 
L 353.187057 182.664402 
L 353.576749 176.911691 
L 354.745826 176.911691 
L 355.135518 182.664402 
L 356.304595 182.664402 
L 356.694287 176.911691 
L 357.863364 176.911691 
L 358.253056 171.158979 
L 359.422133 171.158979 
L 359.811825 165.406268 
L 360.980902 165.406268 
L 361.370594 171.158979 
L 362.539671 171.158979 
L 362.929363 165.406268 
L 364.09844 165.406268 
L 364.488132 182.664402 
L 365.657209 182.664402 
L 366.046901 176.911691 
L 367.215978 176.911691 
L 367.60567 182.664402 
L 368.774747 182.664402 
L 369.164439 176.911691 
L 370.333516 176.911691 
L 370.723208 171.158979 
L 371.892285 171.158979 
L 372.281977 165.406268 
L 373.451054 165.406268 
L 373.840746 171.158979 
L 375.009823 171.158979 
L 375.399515 165.406268 
L 376.568592 165.406268 
L 376.958284 205.675247 
L 378.127361 205.675247 
L 378.517053 199.922536 
L 379.68613 199.922536 
L 380.075822 205.675247 
L 381.244899 205.675247 
L 381.634591 199.922536 
L 382.803668 199.922536 
L 383.19336 194.169825 
L 384.362437 194.169825 
L 384.752129 188.417113 
L 385.921206 188.417113 
L 386.310898 194.169825 
L 387.479975 194.169825 
L 387.869667 188.417113 
L 389.038744 188.417113 
L 389.428436 205.675247 
L 390.597513 205.675247 
L 390.987205 199.922536 
L 392.156282 199.922536 
L 392.545974 205.675247 
L 393.715051 205.675247 
L 394.104743 199.922536 
L 395.27382 199.922536 
L 395.663512 194.169825 
L 396.832589 194.169825 
L 397.222281 188.417113 
L 398.391358 188.417113 
L 398.78105 194.169825 
L 399.950127 194.169825 
L 400.339819 188.417113 
L 401.508896 188.417113 
L 401.898588 182.664402 
L 403.067665 182.664402 
L 403.457357 176.911691 
L 404.626434 176.911691 
L 405.016126 182.664402 
L 406.185202 182.664402 
L 406.574895 176.911691 
L 407.743971 176.911691 
L 408.133664 171.158979 
L 409.30274 171.158979 
L 409.692433 165.406268 
L 410.861509 165.406268 
L 411.251202 171.158979 
L 412.420278 171.158979 
L 412.809971 165.406268 
L 413.979047 165.406268 
L 414.36874 182.664402 
L 415.537816 182.664402 
L 415.927509 176.911691 
L 417.096585 176.911691 
L 417.486278 182.664402 
L 417.486278 182.664402 
" style="fill:none;stroke:#e36f47;stroke-linecap:round;"/>
   </g>
   <g id="patch_3">
    <path d="M 16.504646 258.945354 
L 16.504646 2.834646 
" style="fill:none;stroke:#000000;stroke-linecap:square;stroke-linejoin:miter;"/>
   </g>
   <g id="patch_4">
    <path d="M 16.504646 258.945354 
L 429.165354 258.945354 
" style="fill:none;stroke:#000000;stroke-linecap:square;stroke-linejoin:miter;"/>
   </g>
   <g id="line2d_23">
    <path clip-path="url(#p26d5ef3476)" d="M 28.183722 251.696938 
L 28.573415 245.944227 
L 29.742491 245.944227 
L 30.132184 240.191515 
L 31.30126 240.191515 
L 31.690953 234.438804 
L 32.860029 234.438804 
L 33.249722 228.686093 
L 33.639414 228.686093 
L 34.029106 240.191515 
L 34.418798 240.191515 
L 34.808491 234.438804 
L 35.977567 234.438804 
L 36.36726 228.686093 
L 37.536336 228.686093 
L 37.926029 222.933381 
L 39.095105 222.933381 
L 39.484798 217.18067 
L 39.87449 217.18067 
L 40.264182 228.686093 
L 40.653874 228.686093 
L 41.043566 222.933381 
L 42.212643 222.933381 
L 42.602335 217.18067 
L 43.771412 217.18067 
L 44.161104 211.427959 
L 45.330181 211.427959 
L 45.719873 205.675247 
L 46.109566 205.675247 
L 46.499258 217.18067 
L 46.88895 217.18067 
L 47.278642 211.427959 
L 48.447719 211.427959 
L 48.837411 205.675247 
L 50.006488 205.675247 
L 50.39618 199.922536 
L 51.565257 199.922536 
L 51.954949 194.169825 
L 52.344642 194.169825 
L 52.734334 228.686093 
L 53.124026 228.686093 
L 53.513718 222.933381 
L 54.682795 222.933381 
L 55.072487 217.18067 
L 56.241564 217.18067 
L 56.631256 211.427959 
L 57.800333 211.427959 
L 58.190025 205.675247 
L 58.579718 205.675247 
L 58.96941 217.18067 
L 59.359102 217.18067 
L 59.748794 211.427959 
L 60.917871 211.427959 
L 61.307563 205.675247 
L 62.47664 205.675247 
L 62.866332 199.922536 
L 64.035409 199.922536 
L 64.425101 194.169825 
L 64.814794 194.169825 
L 65.204486 205.675247 
L 65.594178 205.675247 
L 65.98387 199.922536 
L 67.152947 199.922536 
L 67.542639 194.169825 
L 68.711716 194.169825 
L 69.101408 188.417113 
L 70.270485 188.417113 
L 70.660177 182.664402 
L 71.04987 182.664402 
L 71.439562 194.169825 
L 71.829254 194.169825 
L 72.218946 188.417113 
L 73.388023 188.417113 
L 73.777715 182.664402 
L 74.946792 182.664402 
L 75.336484 176.911691 
L 76.505561 176.911691 
L 76.895253 171.158979 
L 77.284946 171.158979 
L 77.674638 205.675247 
L 78.06433 205.675247 
L 78.454022 199.922536 
L 79.623099 199.922536 
L 80.012791 194.169825 
L 81.181868 194.169825 
L 81.57156 188.417113 
L 82.740637 188.417113 
L 83.130329 182.664402 
L 83.520021 182.664402 
L 83.909714 194.169825 
L 84.299406 194.169825 
L 84.689098 188.417113 
L 85.858175 188.417113 
L 86.247867 182.664402 
L 87.416944 182.664402 
L 87.806636 176.911691 
L 88.975713 176.911691 
L 89.365405 171.158979 
L 89.755097 171.158979 
L 90.14479 182.664402 
L 90.534482 182.664402 
L 90.924174 176.911691 
L 92.093251 176.911691 
L 92.482943 171.158979 
L 93.65202 171.158979 
L 94.041712 165.406268 
L 95.210789 165.406268 
L 95.600481 159.653557 
L 95.990173 159.653557 
L 96.379866 171.158979 
L 96.769558 171.158979 
L 97.15925 165.406268 
L 98.328327 165.406268 
L 98.718019 159.653557 
L 99.887096 159.653557 
L 100.276788 153.900845 
L 101.445865 153.900845 
L 101.835557 148.148134 
L 102.225249 148.148134 
L 102.614942 182.664402 
L 103.004634 182.664402 
L 103.394326 176.911691 
L 104.563403 176.911691 
L 104.953095 171.158979 
L 106.122172 171.158979 
L 106.511864 165.406268 
L 107.680941 165.406268 
L 108.070633 159.653557 
L 108.460325 159.653557 
L 108.850018 171.158979 
L 109.23971 171.158979 
L 109.629402 165.406268 
L 110.798479 165.406268 
L 111.188171 159.653557 
L 112.357248 159.653557 
L 112.74694 153.900845 
L 113.916017 153.900845 
L 114.305709 148.148134 
L 114.695401 148.148134 
L 115.085094 159.653557 
L 115.474786 159.653557 
L 115.864478 153.900845 
L 117.033555 153.900845 
L 117.423247 148.148134 
L 118.592324 148.148134 
L 118.982016 142.395423 
L 120.151093 142.395423 
L 120.540785 136.642711 
L 120.930477 136.642711 
L 121.32017 148.148134 
L 121.709862 148.148134 
L 122.099554 142.395423 
L 123.268631 142.395423 
L 123.658323 136.642711 
L 124.8274 136.642711 
L 125.217092 130.89 
L 126.386169 130.89 
L 126.775861 125.137289 
L 127.165553 125.137289 
L 127.555245 205.675247 
L 127.944938 205.675247 
L 128.33463 199.922536 
L 129.503707 199.922536 
L 129.893399 194.169825 
L 131.062476 194.169825 
L 131.452168 188.417113 
L 132.621245 188.417113 
L 133.010937 182.664402 
L 133.400629 182.664402 
L 133.790321 194.169825 
L 134.180014 194.169825 
L 134.569706 188.417113 
L 135.738783 188.417113 
L 136.128475 182.664402 
L 137.297552 182.664402 
L 137.687244 176.911691 
L 138.856321 176.911691 
L 139.246013 171.158979 
L 139.635705 171.158979 
L 140.025397 182.664402 
L 140.41509 182.664402 
L 140.804782 176.911691 
L 141.973859 176.911691 
L 142.363551 171.158979 
L 143.532628 171.158979 
L 143.92232 165.406268 
L 145.091397 165.406268 
L 145.481089 159.653557 
L 145.870781 159.653557 
L 146.260473 171.158979 
L 146.650166 171.158979 
L 147.039858 165.406268 
L 148.208935 165.406268 
L 148.598627 159.653557 
L 149.767704 159.653557 
L 150.157396 153.900845 
L 151.326473 153.900845 
L 151.716165 148.148134 
L 152.105857 148.148134 
L 152.495549 182.664402 
L 152.885242 182.664402 
L 153.274934 176.911691 
L 154.444011 176.911691 
L 154.833703 171.158979 
L 156.00278 171.158979 
L 156.392472 165.406268 
L 157.561549 165.406268 
L 157.951241 159.653557 
L 158.340933 159.653557 
L 158.730625 171.158979 
L 159.120318 171.158979 
L 159.51001 165.406268 
L 160.679087 165.406268 
L 161.068779 159.653557 
L 162.237855 159.653557 
L 162.627548 153.900845 
L 163.796624 153.900845 
L 164.186317 148.148134 
L 164.576009 148.148134 
L 164.965701 159.653557 
L 165.355393 159.653557 
L 165.745086 153.900845 
L 166.914162 153.900845 
L 167.303855 148.148134 
L 168.472931 148.148134 
L 168.862624 142.395423 
L 170.0317 142.395423 
L 170.421393 136.642711 
L 170.811085 136.642711 
L 171.200777 148.148134 
L 171.590469 148.148134 
L 171.980162 142.395423 
L 173.149238 142.395423 
L 173.538931 136.642711 
L 174.708007 136.642711 
L 175.0977 130.89 
L 176.266776 130.89 
L 176.656469 125.137289 
L 177.046161 125.137289 
L 177.435853 159.653557 
L 177.825545 159.653557 
L 178.215238 153.900845 
L 179.384314 153.900845 
L 179.774007 148.148134 
L 180.943083 148.148134 
L 181.332776 142.395423 
L 182.501852 142.395423 
L 182.891545 136.642711 
L 183.281237 136.642711 
L 183.670929 148.148134 
L 184.060621 148.148134 
L 184.450314 142.395423 
L 185.61939 142.395423 
L 186.009083 136.642711 
L 187.178159 136.642711 
L 187.567852 130.89 
L 188.736928 130.89 
L 189.126621 125.137289 
L 189.516313 125.137289 
L 189.906005 136.642711 
L 190.295697 136.642711 
L 190.68539 130.89 
L 191.854466 130.89 
L 192.244159 125.137289 
L 193.413235 125.137289 
L 193.802928 119.384577 
L 194.972004 119.384577 
L 195.361697 113.631866 
L 195.751389 113.631866 
L 196.141081 125.137289 
L 196.530773 125.137289 
L 196.920466 119.384577 
L 198.089542 119.384577 
L 198.479235 113.631866 
L 199.648311 113.631866 
L 200.038004 107.879155 
L 201.20708 107.879155 
L 201.596773 102.126443 
L 201.986465 102.126443 
L 202.376157 136.642711 
L 202.765849 136.642711 
L 203.155541 130.89 
L 204.324618 130.89 
L 204.71431 125.137289 
L 205.883387 125.137289 
L 206.273079 119.384577 
L 207.442156 119.384577 
L 207.831848 113.631866 
L 208.221541 113.631866 
L 208.611233 125.137289 
L 209.000925 125.137289 
L 209.390617 119.384577 
L 210.559694 119.384577 
L 210.949386 113.631866 
L 212.118463 113.631866 
L 212.508155 107.879155 
L 213.677232 107.879155 
L 214.066924 102.126443 
L 214.456617 102.126443 
L 214.846309 113.631866 
L 215.236001 113.631866 
L 215.625693 107.879155 
L 216.79477 107.879155 
L 217.184462 102.126443 
L 218.353539 102.126443 
L 218.743231 96.373732 
L 219.912308 96.373732 
L 220.302 90.621021 
L 220.691693 90.621021 
L 221.081385 102.126443 
L 221.471077 102.126443 
L 221.860769 96.373732 
L 223.029846 96.373732 
L 223.419538 90.621021 
L 224.588615 90.621021 
L 224.978307 84.868309 
L 226.147384 84.868309 
L 226.537076 79.115598 
L 226.926769 79.115598 
L 227.316461 159.653557 
L 227.706153 159.653557 
L 228.095845 153.900845 
L 229.264922 153.900845 
L 229.654614 148.148134 
L 230.823691 148.148134 
L 231.213383 142.395423 
L 232.38246 142.395423 
L 232.772152 136.642711 
L 233.161845 136.642711 
L 233.551537 148.148134 
L 233.941229 148.148134 
L 234.330921 142.395423 
L 235.499998 142.395423 
L 235.88969 136.642711 
L 237.058767 136.642711 
L 237.448459 130.89 
L 238.617536 130.89 
L 239.007228 125.137289 
L 239.396921 125.137289 
L 239.786613 136.642711 
L 240.176305 136.642711 
L 240.565997 130.89 
L 241.735074 130.89 
L 242.124766 125.137289 
L 243.293843 125.137289 
L 243.683535 119.384577 
L 244.852612 119.384577 
L 245.242304 113.631866 
L 245.631996 113.631866 
L 246.021689 125.137289 
L 246.411381 125.137289 
L 246.801073 119.384577 
L 247.97015 119.384577 
L 248.359842 113.631866 
L 249.528919 113.631866 
L 249.918611 107.879155 
L 251.087688 107.879155 
L 251.47738 102.126443 
L 251.867072 102.126443 
L 252.256765 136.642711 
L 252.646457 136.642711 
L 253.036149 130.89 
L 254.205226 130.89 
L 254.594918 125.137289 
L 255.763995 125.137289 
L 256.153687 119.384577 
L 257.322764 119.384577 
L 257.712456 113.631866 
L 258.102148 113.631866 
L 258.491841 125.137289 
L 258.881533 125.137289 
L 259.271225 119.384577 
L 260.440302 119.384577 
L 260.829994 113.631866 
L 261.999071 113.631866 
L 262.388763 107.879155 
L 263.55784 107.879155 
L 263.947532 102.126443 
L 264.337224 102.126443 
L 264.726917 113.631866 
L 265.116609 113.631866 
L 265.506301 107.879155 
L 266.675378 107.879155 
L 267.06507 102.126443 
L 268.234147 102.126443 
L 268.623839 96.373732 
L 269.792916 96.373732 
L 270.182608 90.621021 
L 270.5723 90.621021 
L 270.961993 102.126443 
L 271.351685 102.126443 
L 271.741377 96.373732 
L 272.910454 96.373732 
L 273.300146 90.621021 
L 274.469223 90.621021 
L 274.858915 84.868309 
L 276.027992 84.868309 
L 276.417684 79.115598 
L 276.807376 79.115598 
L 277.197069 113.631866 
L 277.586761 113.631866 
L 277.976453 107.879155 
L 279.14553 107.879155 
L 279.535222 102.126443 
L 280.704299 102.126443 
L 281.093991 96.373732 
L 282.263068 96.373732 
L 282.65276 90.621021 
L 283.042452 90.621021 
L 283.432145 102.126443 
L 283.821837 102.126443 
L 284.211529 96.373732 
L 285.380606 96.373732 
L 285.770298 90.621021 
L 286.939375 90.621021 
L 287.329067 84.868309 
L 288.498144 84.868309 
L 288.887836 79.115598 
L 289.277528 79.115598 
L 289.66722 90.621021 
L 290.056913 90.621021 
L 290.446605 84.868309 
L 291.615682 84.868309 
L 292.005374 79.115598 
L 293.174451 79.115598 
L 293.564143 73.362887 
L 294.73322 73.362887 
L 295.122912 67.610175 
L 295.512604 67.610175 
L 295.902296 79.115598 
L 296.291989 79.115598 
L 296.681681 73.362887 
L 297.850758 73.362887 
L 298.24045 67.610175 
L 299.409527 67.610175 
L 299.799219 61.857464 
L 300.968296 61.857464 
L 301.357988 56.104753 
L 301.74768 56.104753 
L 302.137372 90.621021 
L 302.527065 90.621021 
L 302.916757 84.868309 
L 304.085834 84.868309 
L 304.475526 79.115598 
L 305.644603 79.115598 
L 306.034295 73.362887 
L 307.203372 73.362887 
L 307.593064 67.610175 
L 307.982756 67.610175 
L 308.372448 79.115598 
L 308.762141 79.115598 
L 309.151833 73.362887 
L 310.32091 73.362887 
L 310.710602 67.610175 
L 311.879679 67.610175 
L 312.269371 61.857464 
L 313.438448 61.857464 
L 313.82814 56.104753 
L 314.217832 56.104753 
L 314.607524 67.610175 
L 314.997217 67.610175 
L 315.386909 61.857464 
L 316.555986 61.857464 
L 316.945678 56.104753 
L 318.114755 56.104753 
L 318.504447 50.352041 
L 319.673524 50.352041 
L 320.063216 44.59933 
L 320.452908 44.59933 
L 320.8426 56.104753 
L 321.232293 56.104753 
L 321.621985 50.352041 
L 322.791062 50.352041 
L 323.180754 44.59933 
L 324.34983 44.59933 
L 324.739523 38.846619 
L 325.908599 38.846619 
L 326.298292 33.093907 
L 326.687984 33.093907 
L 327.077676 113.631866 
L 327.467368 113.631866 
L 327.857061 107.879155 
L 329.026137 107.879155 
L 329.41583 102.126443 
L 330.584906 102.126443 
L 330.974599 96.373732 
L 332.143675 96.373732 
L 332.533368 90.621021 
L 332.92306 90.621021 
L 333.312752 102.126443 
L 333.702444 102.126443 
L 334.092137 96.373732 
L 335.261213 96.373732 
L 335.650906 90.621021 
L 336.819982 90.621021 
L 337.209675 84.868309 
L 338.378751 84.868309 
L 338.768444 79.115598 
L 339.158136 79.115598 
L 339.547828 90.621021 
L 339.93752 90.621021 
L 340.327213 84.868309 
L 341.496289 84.868309 
L 341.885982 79.115598 
L 343.055058 79.115598 
L 343.444751 73.362887 
L 344.613827 73.362887 
L 345.00352 67.610175 
L 345.393212 67.610175 
L 345.782904 79.115598 
L 346.172596 79.115598 
L 346.562289 73.362887 
L 347.731365 73.362887 
L 348.121058 67.610175 
L 349.290134 67.610175 
L 349.679827 61.857464 
L 350.848903 61.857464 
L 351.238596 56.104753 
L 351.628288 56.104753 
L 352.01798 90.621021 
L 352.407672 90.621021 
L 352.797365 84.868309 
L 353.966441 84.868309 
L 354.356134 79.115598 
L 355.52521 79.115598 
L 355.914903 73.362887 
L 357.083979 73.362887 
L 357.473672 67.610175 
L 357.863364 67.610175 
L 358.253056 79.115598 
L 358.642748 79.115598 
L 359.032441 73.362887 
L 360.201517 73.362887 
L 360.59121 67.610175 
L 361.760286 67.610175 
L 362.149979 61.857464 
L 363.319055 61.857464 
L 363.708748 56.104753 
L 364.09844 56.104753 
L 364.488132 67.610175 
L 364.877824 67.610175 
L 365.267516 61.857464 
L 366.436593 61.857464 
L 366.826285 56.104753 
L 367.995362 56.104753 
L 368.385054 50.352041 
L 369.554131 50.352041 
L 369.943823 44.59933 
L 370.333516 44.59933 
L 370.723208 56.104753 
L 371.1129 56.104753 
L 371.502592 50.352041 
L 372.671669 50.352041 
L 373.061361 44.59933 
L 374.230438 44.59933 
L 374.62013 38.846619 
L 375.789207 38.846619 
L 376.178899 33.093907 
L 376.568592 33.093907 
L 376.958284 67.610175 
L 377.347976 67.610175 
L 377.737668 61.857464 
L 378.906745 61.857464 
L 379.296437 56.104753 
L 380.465514 56.104753 
L 380.855206 50.352041 
L 382.024283 50.352041 
L 382.413975 44.59933 
L 382.803668 44.59933 
L 383.19336 56.104753 
L 383.583052 56.104753 
L 383.972744 50.352041 
L 385.141821 50.352041 
L 385.531513 44.59933 
L 386.70059 44.59933 
L 387.090282 38.846619 
L 388.259359 38.846619 
L 388.649051 33.093907 
L 389.038744 33.093907 
L 389.428436 44.59933 
L 389.818128 44.59933 
L 390.20782 38.846619 
L 391.376897 38.846619 
L 391.766589 33.093907 
L 392.935666 33.093907 
L 393.325358 27.341196 
L 394.494435 27.341196 
L 394.884127 21.588485 
L 395.27382 21.588485 
L 395.663512 33.093907 
L 396.053204 33.093907 
L 396.442896 27.341196 
L 397.611973 27.341196 
L 398.001665 21.588485 
L 399.170742 21.588485 
L 399.560434 15.835773 
L 400.729511 15.835773 
L 401.119203 10.083062 
L 401.508896 10.083062 
L 401.898588 44.59933 
L 402.28828 44.59933 
L 402.677972 38.846619 
L 403.847049 38.846619 
L 404.236741 33.093907 
L 405.405818 33.093907 
L 405.79551 27.341196 
L 406.964587 27.341196 
L 407.354279 21.588485 
L 407.743971 21.588485 
L 408.133664 33.093907 
L 408.523356 33.093907 
L 408.913048 27.341196 
L 410.082125 27.341196 
L 410.471817 21.588485 
L 411.640894 21.588485 
L 412.030586 15.835773 
L 413.199663 15.835773 
L 413.589355 10.083062 
L 413.979047 10.083062 
L 414.36874 21.588485 
L 414.758432 21.588485 
L 415.148124 15.835773 
L 416.317201 15.835773 
L 416.706893 10.083062 
L 417.486278 10.083062 
L 417.486278 10.083062 
" style="fill:none;stroke:#3ea44e;stroke-linecap:round;"/>
   </g>
   <g id="line2d_24">
    <path clip-path="url(#p26d5ef3476)" d="M 28.183722 245.944227 
L 28.963107 241.73295 
L 29.742491 238.833484 
L 30.911568 235.425813 
L 32.470337 231.768961 
L 34.029106 228.686093 
L 35.977567 225.334703 
L 38.315721 221.804973 
L 41.043566 218.153155 
L 43.771412 214.861613 
L 46.88895 211.427959 
L 50.39618 207.885594 
L 54.293103 204.258865 
L 58.579718 200.565721 
L 63.256025 196.819569 
L 68.711716 192.749188 
L 74.5571 188.679143 
L 80.792176 184.609372 
L 87.806636 180.307668 
L 95.210789 176.031834 
L 103.394326 171.570941 
L 111.967556 167.149694 
L 121.32017 162.576317 
L 131.452168 157.873056 
L 142.363551 153.058486 
L 154.054318 148.148134 
L 166.52447 143.154998 
L 179.774007 138.089992 
L 193.802928 132.962314 
L 209.000925 127.646284 
L 224.978307 122.292896 
L 242.124766 116.783898 
L 260.440302 111.137586 
L 279.924914 105.369853 
L 300.578603 99.494502 
L 322.401369 93.523527 
L 345.393212 87.467356 
L 369.554131 81.335076 
L 395.27382 75.040923 
L 417.486278 69.780233 
L 417.486278 69.780233 
" style="fill:none;stroke:#c371d2;stroke-linecap:round;"/>
   </g>
   <g id="legend_1">
    <g id="patch_5">
     <path d="M 22.104646 57.582146 
L 67.464646 57.582146 
Q 69.064646 57.582146 69.064646 55.982146 
L 69.064646 8.434646 
Q 69.064646 6.834646 67.464646 6.834646 
L 22.104646 6.834646 
Q 20.504646 6.834646 20.504646 8.434646 
L 20.504646 55.982146 
Q 20.504646 57.582146 22.104646 57.582146 
z
" style="fill:#ffffff;stroke:#000000;stroke-linejoin:miter;"/>
    </g>
    <g id="line2d_25">
     <path d="M 23.704646 13.313396 
L 39.704646 13.313396 
" style="fill:none;stroke:#009afa;stroke-linecap:square;"/>
    </g>
    <g id="line2d_26"/>
    <g id="text_12">
     <!-- $n_3(k)$ -->
     <defs>
      <path d="M 55.71875 33.015625 
L 49.3125 0 
L 40.28125 0 
L 46.6875 32.671875 
Q 47.125 34.96875 47.359375 36.71875 
Q 47.609375 38.484375 47.609375 39.5 
Q 47.609375 43.609375 45.015625 45.890625 
Q 42.4375 48.1875 37.796875 48.1875 
Q 30.5625 48.1875 25.34375 43.375 
Q 20.125 38.578125 18.5 30.328125 
L 12.5 0 
L 3.515625 0 
L 14.109375 54.6875 
L 23.09375 54.6875 
L 21.296875 46.09375 
Q 25.046875 50.828125 30.3125 53.40625 
Q 35.59375 56 41.40625 56 
Q 48.640625 56 52.609375 52.09375 
Q 56.59375 48.1875 56.59375 41.109375 
Q 56.59375 39.359375 56.375 37.359375 
Q 56.15625 35.359375 55.71875 33.015625 
z
" id="DejaVuSans-Oblique-110"/>
      <path d="M 31 75.875 
Q 24.46875 64.65625 21.28125 53.65625 
Q 18.109375 42.671875 18.109375 31.390625 
Q 18.109375 20.125 21.3125 9.0625 
Q 24.515625 -2 31 -13.1875 
L 23.1875 -13.1875 
Q 15.875 -1.703125 12.234375 9.375 
Q 8.59375 20.453125 8.59375 31.390625 
Q 8.59375 42.28125 12.203125 53.3125 
Q 15.828125 64.359375 23.1875 75.875 
z
" id="DejaVuSans-40"/>
      <path d="M 8.015625 75.875 
L 15.828125 75.875 
Q 23.140625 64.359375 26.78125 53.3125 
Q 30.421875 42.28125 30.421875 31.390625 
Q 30.421875 20.453125 26.78125 9.375 
Q 23.140625 -1.703125 15.828125 -13.1875 
L 8.015625 -13.1875 
Q 14.5 -2 17.703125 9.0625 
Q 20.90625 20.125 20.90625 31.390625 
Q 20.90625 42.671875 17.703125 53.65625 
Q 14.5 64.65625 8.015625 75.875 
z
" id="DejaVuSans-41"/>
     </defs>
     <g transform="translate(46.104646 16.113396)scale(0.08 -0.08)">
      <use transform="translate(0 0.015625)" xlink:href="#DejaVuSans-Oblique-110"/>
      <use transform="translate(63.378906 -16.390625)scale(0.7)" xlink:href="#DejaVuSans-51"/>
      <use transform="translate(110.649414 0.015625)" xlink:href="#DejaVuSans-40"/>
      <use transform="translate(149.663086 0.015625)" xlink:href="#DejaVuSans-Oblique-107"/>
      <use transform="translate(207.573242 0.015625)" xlink:href="#DejaVuSans-41"/>
     </g>
    </g>
    <g id="line2d_27">
     <path d="M 23.704646 25.055896 
L 39.704646 25.055896 
" style="fill:none;stroke:#e36f47;stroke-linecap:square;"/>
    </g>
    <g id="line2d_28"/>
    <g id="text_13">
     <!-- $n_5(k)$ -->
     <g transform="translate(46.104646 27.855896)scale(0.08 -0.08)">
      <use transform="translate(0 0.015625)" xlink:href="#DejaVuSans-Oblique-110"/>
      <use transform="translate(63.378906 -16.390625)scale(0.7)" xlink:href="#DejaVuSans-53"/>
      <use transform="translate(110.649414 0.015625)" xlink:href="#DejaVuSans-40"/>
      <use transform="translate(149.663086 0.015625)" xlink:href="#DejaVuSans-Oblique-107"/>
      <use transform="translate(207.573242 0.015625)" xlink:href="#DejaVuSans-41"/>
     </g>
    </g>
    <g id="line2d_29">
     <path d="M 23.704646 36.798396 
L 39.704646 36.798396 
" style="fill:none;stroke:#3ea44e;stroke-linecap:square;"/>
    </g>
    <g id="line2d_30"/>
    <g id="text_14">
     <!-- $h(k)$ -->
     <defs>
      <path d="M 55.71875 33.015625 
L 49.3125 0 
L 40.28125 0 
L 46.6875 32.671875 
Q 47.125 34.96875 47.359375 36.71875 
Q 47.609375 38.484375 47.609375 39.5 
Q 47.609375 43.609375 45.015625 45.890625 
Q 42.4375 48.1875 37.796875 48.1875 
Q 30.5625 48.1875 25.265625 43.296875 
Q 19.96875 38.421875 18.40625 30.328125 
L 12.5 0 
L 3.515625 0 
L 18.3125 75.984375 
L 27.296875 75.984375 
L 21.484375 46.09375 
Q 24.90625 50.6875 30.21875 53.34375 
Q 35.546875 56 41.40625 56 
Q 48.640625 56 52.609375 52.09375 
Q 56.59375 48.1875 56.59375 41.109375 
Q 56.59375 39.359375 56.375 37.359375 
Q 56.15625 35.359375 55.71875 33.015625 
z
" id="DejaVuSans-Oblique-104"/>
     </defs>
     <g transform="translate(46.104646 39.598396)scale(0.08 -0.08)">
      <use transform="translate(0 0.015625)" xlink:href="#DejaVuSans-Oblique-104"/>
      <use transform="translate(63.378906 0.015625)" xlink:href="#DejaVuSans-40"/>
      <use transform="translate(102.392578 0.015625)" xlink:href="#DejaVuSans-Oblique-107"/>
      <use transform="translate(160.302734 0.015625)" xlink:href="#DejaVuSans-41"/>
     </g>
    </g>
    <g id="line2d_31">
     <path d="M 23.704646 49.918396 
L 39.704646 49.918396 
" style="fill:none;stroke:#c371d2;stroke-linecap:square;"/>
    </g>
    <g id="line2d_32"/>
    <g id="text_15">
     <!-- $\sqrt{k}$ -->
     <defs>
      <path d="M 108.90625 155.203125 
L 52.703125 -29.5 
L 48.5 -29.5 
L 25.40625 45.59375 
Q 24.296875 49.203125 22.890625 50.796875 
Q 21.5 52.40625 19.203125 52.40625 
Q 15.796875 52.40625 12.40625 49.703125 
L 11.203125 51.703125 
L 27.59375 64.296875 
L 30.09375 64.296875 
L 52.796875 -9.40625 
L 53.203125 -9.40625 
L 103.203125 155.203125 
z
" id="STIXSizeOneSym-Regular-8730"/>
     </defs>
     <g transform="translate(46.104646 52.718396)scale(0.08 -0.08)">
      <use transform="translate(0 17.90625)scale(0.580577)" xlink:href="#STIXSizeOneSym-Regular-8730"/>
      <use transform="translate(73.855545 0.765625)" xlink:href="#DejaVuSans-Oblique-107"/>
      <path d="M 61.355545 101.5 
L 61.355545 107.75 
L 144.265701 107.75 
L 144.265701 101.5 
L 61.355545 101.5 
z
"/>
     </g>
    </g>
   </g>
  </g>
 </g>
 <defs>
  <clipPath id="p26d5ef3476">
   <rect height="256.110709" width="412.660709" x="16.504646" y="2.834646"/>
  </clipPath>
 </defs>
</svg>
