<?xml version="1.0" encoding="utf-8" standalone="no"?>
<!DOCTYPE svg PUBLIC "-//W3C//DTD SVG 1.1//EN"
  "http://www.w3.org/Graphics/SVG/1.1/DTD/svg11.dtd">
<!-- Created with matplotlib (https://matplotlib.org/) -->
<svg height="288pt" version="1.1" viewBox="0 0 432 288" width="432pt" xmlns="http://www.w3.org/2000/svg" xmlns:xlink="http://www.w3.org/1999/xlink">
 <defs>
  <style type="text/css">
*{stroke-linecap:butt;stroke-linejoin:round;}
  </style>
 </defs>
 <g id="figure_1">
  <g id="patch_1">
   <path d="M 0 288 
L 432 288 
L 432 0 
L 0 0 
z
" style="fill:#ffffff;"/>
  </g>
  <g id="axes_1">
   <g id="patch_2">
    <path d="M 16.504646 258.945354 
L 429.165354 258.945354 
L 429.165354 2.834646 
L 16.504646 2.834646 
z
" style="fill:#ffffff;"/>
   </g>
   <g id="line2d_1">
    <path clip-path="url(#p744d6c40be)" d="M 28.183722 251.696938 
L 28.963888 243.067871 
L 29.744053 243.067871 
L 30.524219 251.696938 
L 31.304384 251.696938 
L 32.08455 243.067871 
L 32.864715 243.067871 
L 33.64488 234.438804 
L 34.425046 234.438804 
L 35.205211 225.809737 
L 35.985377 225.809737 
L 36.765542 234.438804 
L 37.545708 234.438804 
L 38.325873 225.809737 
L 39.106039 225.809737 
L 39.886204 251.696938 
L 40.666369 251.696938 
L 41.446535 243.067871 
L 42.2267 243.067871 
L 43.006866 251.696938 
L 43.787031 251.696938 
L 44.567197 243.067871 
L 45.347362 243.067871 
L 46.127527 234.438804 
L 46.907693 234.438804 
L 47.687858 225.809737 
L 48.468024 225.809737 
L 49.248189 234.438804 
L 50.028355 234.438804 
L 50.80852 225.809737 
L 51.588686 225.809737 
L 52.368851 217.18067 
L 53.149016 217.18067 
L 53.929182 208.551603 
L 54.709347 208.551603 
L 55.489513 217.18067 
L 56.269678 217.18067 
L 57.049844 208.551603 
L 57.830009 208.551603 
L 58.610175 199.922536 
L 59.39034 199.922536 
L 60.170505 191.293469 
L 60.950671 191.293469 
L 61.730836 199.922536 
L 62.511002 199.922536 
L 63.291167 191.293469 
L 64.071333 191.293469 
L 64.851498 217.18067 
L 65.631664 217.18067 
L 66.411829 208.551603 
L 67.191994 208.551603 
L 67.97216 217.18067 
L 68.752325 217.18067 
L 69.532491 208.551603 
L 70.312656 208.551603 
L 71.092822 199.922536 
L 71.872987 199.922536 
L 72.653152 191.293469 
L 73.433318 191.293469 
L 74.213483 199.922536 
L 74.993649 199.922536 
L 75.773814 191.293469 
L 76.55398 191.293469 
L 77.334145 251.696938 
L 78.114311 251.696938 
L 78.894476 243.067871 
L 79.674641 243.067871 
L 80.454807 251.696938 
L 81.234972 251.696938 
L 82.015138 243.067871 
L 82.795303 243.067871 
L 83.575469 234.438804 
L 84.355634 234.438804 
L 85.1358 225.809737 
L 85.915965 225.809737 
L 86.69613 234.438804 
L 87.476296 234.438804 
L 88.256461 225.809737 
L 89.036627 225.809737 
L 89.816792 251.696938 
L 90.596958 251.696938 
L 91.377123 243.067871 
L 92.157289 243.067871 
L 92.937454 251.696938 
L 93.717619 251.696938 
L 94.497785 243.067871 
L 95.27795 243.067871 
L 96.058116 234.438804 
L 96.838281 234.438804 
L 97.618447 225.809737 
L 98.398612 225.809737 
L 99.178778 234.438804 
L 99.958943 234.438804 
L 100.739108 225.809737 
L 101.519274 225.809737 
L 102.299439 217.18067 
L 103.079605 217.18067 
L 103.85977 208.551603 
L 104.639936 208.551603 
L 105.420101 217.18067 
L 106.200266 217.18067 
L 106.980432 208.551603 
L 107.760597 208.551603 
L 108.540763 199.922536 
L 109.320928 199.922536 
L 110.101094 191.293469 
L 110.881259 191.293469 
L 111.661425 199.922536 
L 112.44159 199.922536 
L 113.221755 191.293469 
L 114.001921 191.293469 
L 114.782086 217.18067 
L 115.562252 217.18067 
L 116.342417 208.551603 
L 117.122583 208.551603 
L 117.902748 217.18067 
L 118.682914 217.18067 
L 119.463079 208.551603 
L 120.243244 208.551603 
L 121.02341 199.922536 
L 121.803575 199.922536 
L 122.583741 191.293469 
L 123.363906 191.293469 
L 124.144072 199.922536 
L 124.924237 199.922536 
L 125.704403 191.293469 
L 126.484568 191.293469 
L 127.264733 182.664402 
L 128.044899 182.664402 
L 128.825064 174.035335 
L 129.60523 174.035335 
L 130.385395 182.664402 
L 131.165561 182.664402 
L 131.945726 174.035335 
L 132.725891 174.035335 
L 133.506057 165.406268 
L 134.286222 165.406268 
L 135.066388 156.777201 
L 135.846553 156.777201 
L 136.626719 165.406268 
L 137.406884 165.406268 
L 138.18705 156.777201 
L 138.967215 156.777201 
L 139.74738 182.664402 
L 140.527546 182.664402 
L 141.307711 174.035335 
L 142.087877 174.035335 
L 142.868042 182.664402 
L 143.648208 182.664402 
L 144.428373 174.035335 
L 145.208539 174.035335 
L 145.988704 165.406268 
L 146.768869 165.406268 
L 147.549035 156.777201 
L 148.3292 156.777201 
L 149.109366 165.406268 
L 149.889531 165.406268 
L 150.669697 156.777201 
L 151.449862 156.777201 
L 152.230028 148.148134 
L 153.010193 148.148134 
L 153.790358 139.519067 
L 154.570524 139.519067 
L 155.350689 148.148134 
L 156.130855 148.148134 
L 156.91102 139.519067 
L 157.691186 139.519067 
L 158.471351 130.89 
L 159.251517 130.89 
L 160.031682 122.260933 
L 160.811847 122.260933 
L 161.592013 130.89 
L 162.372178 130.89 
L 163.152344 122.260933 
L 163.932509 122.260933 
L 164.712675 148.148134 
L 165.49284 148.148134 
L 166.273005 139.519067 
L 167.053171 139.519067 
L 167.833336 148.148134 
L 168.613502 148.148134 
L 169.393667 139.519067 
L 170.173833 139.519067 
L 170.953998 130.89 
L 171.734164 130.89 
L 172.514329 122.260933 
L 173.294494 122.260933 
L 174.07466 130.89 
L 174.854825 130.89 
L 175.634991 122.260933 
L 176.415156 122.260933 
L 177.195322 182.664402 
L 177.975487 182.664402 
L 178.755653 174.035335 
L 179.535818 174.035335 
L 180.315983 182.664402 
L 181.096149 182.664402 
L 181.876314 174.035335 
L 182.65648 174.035335 
L 183.436645 165.406268 
L 184.216811 165.406268 
L 184.996976 156.777201 
L 185.777142 156.777201 
L 186.557307 165.406268 
L 187.337472 165.406268 
L 188.117638 156.777201 
L 188.897803 156.777201 
L 189.677969 182.664402 
L 190.458134 182.664402 
L 191.2383 174.035335 
L 192.018465 174.035335 
L 192.79863 182.664402 
L 193.578796 182.664402 
L 194.358961 174.035335 
L 195.139127 174.035335 
L 195.919292 165.406268 
L 196.699458 165.406268 
L 197.479623 156.777201 
L 198.259789 156.777201 
L 199.039954 165.406268 
L 199.820119 165.406268 
L 200.600285 156.777201 
L 201.38045 156.777201 
L 202.160616 148.148134 
L 202.940781 148.148134 
L 203.720947 139.519067 
L 204.501112 139.519067 
L 205.281278 148.148134 
L 206.061443 148.148134 
L 206.841608 139.519067 
L 207.621774 139.519067 
L 208.401939 130.89 
L 209.182105 130.89 
L 209.96227 122.260933 
L 210.742436 122.260933 
L 211.522601 130.89 
L 212.302767 130.89 
L 213.082932 122.260933 
L 213.863097 122.260933 
L 214.643263 148.148134 
L 215.423428 148.148134 
L 216.203594 139.519067 
L 216.983759 139.519067 
L 217.763925 148.148134 
L 218.54409 148.148134 
L 219.324256 139.519067 
L 220.104421 139.519067 
L 220.884586 130.89 
L 221.664752 130.89 
L 222.444917 122.260933 
L 223.225083 122.260933 
L 224.005248 130.89 
L 224.785414 130.89 
L 225.565579 122.260933 
L 226.345744 122.260933 
L 227.12591 251.696938 
L 227.906075 251.696938 
L 228.686241 243.067871 
L 229.466406 243.067871 
L 230.246572 251.696938 
L 231.026737 251.696938 
L 231.806903 243.067871 
L 232.587068 243.067871 
L 233.367233 234.438804 
L 234.147399 234.438804 
L 234.927564 225.809737 
L 235.70773 225.809737 
L 236.487895 234.438804 
L 237.268061 234.438804 
L 238.048226 225.809737 
L 238.828392 225.809737 
L 239.608557 251.696938 
L 240.388722 251.696938 
L 241.168888 243.067871 
L 241.949053 243.067871 
L 242.729219 251.696938 
L 243.509384 251.696938 
L 244.28955 243.067871 
L 245.069715 243.067871 
L 245.849881 234.438804 
L 246.630046 234.438804 
L 247.410211 225.809737 
L 248.190377 225.809737 
L 248.970542 234.438804 
L 249.750708 234.438804 
L 250.530873 225.809737 
L 251.311039 225.809737 
L 252.091204 217.18067 
L 252.87137 217.18067 
L 253.651535 208.551603 
L 254.4317 208.551603 
L 255.211866 217.18067 
L 255.992031 217.18067 
L 256.772197 208.551603 
L 257.552362 208.551603 
L 258.332528 199.922536 
L 259.112693 199.922536 
L 259.892858 191.293469 
L 260.673024 191.293469 
L 261.453189 199.922536 
L 262.233355 199.922536 
L 263.01352 191.293469 
L 263.793686 191.293469 
L 264.573851 217.18067 
L 265.354017 217.18067 
L 266.134182 208.551603 
L 266.914347 208.551603 
L 267.694513 217.18067 
L 268.474678 217.18067 
L 269.254844 208.551603 
L 270.035009 208.551603 
L 270.815175 199.922536 
L 271.59534 199.922536 
L 272.375506 191.293469 
L 273.155671 191.293469 
L 273.935836 199.922536 
L 274.716002 199.922536 
L 275.496167 191.293469 
L 276.276333 191.293469 
L 277.056498 251.696938 
L 277.836664 251.696938 
L 278.616829 243.067871 
L 279.396995 243.067871 
L 280.17716 251.696938 
L 280.957325 251.696938 
L 281.737491 243.067871 
L 282.517656 243.067871 
L 283.297822 234.438804 
L 284.077987 234.438804 
L 284.858153 225.809737 
L 285.638318 225.809737 
L 286.418483 234.438804 
L 287.198649 234.438804 
L 287.978814 225.809737 
L 288.75898 225.809737 
L 289.539145 251.696938 
L 290.319311 251.696938 
L 291.099476 243.067871 
L 291.879642 243.067871 
L 292.659807 251.696938 
L 293.439972 251.696938 
L 294.220138 243.067871 
L 295.000303 243.067871 
L 295.780469 234.438804 
L 296.560634 234.438804 
L 297.3408 225.809737 
L 298.120965 225.809737 
L 298.901131 234.438804 
L 299.681296 234.438804 
L 300.461461 225.809737 
L 301.241627 225.809737 
L 302.021792 217.18067 
L 302.801958 217.18067 
L 303.582123 208.551603 
L 304.362289 208.551603 
L 305.142454 217.18067 
L 305.92262 217.18067 
L 306.702785 208.551603 
L 307.48295 208.551603 
L 308.263116 199.922536 
L 309.043281 199.922536 
L 309.823447 191.293469 
L 310.603612 191.293469 
L 311.383778 199.922536 
L 312.163943 199.922536 
L 312.944109 191.293469 
L 313.724274 191.293469 
L 314.504439 217.18067 
L 315.284605 217.18067 
L 316.06477 208.551603 
L 316.844936 208.551603 
L 317.625101 217.18067 
L 318.405267 217.18067 
L 319.185432 208.551603 
L 319.965597 208.551603 
L 320.745763 199.922536 
L 321.525928 199.922536 
L 322.306094 191.293469 
L 323.086259 191.293469 
L 323.866425 199.922536 
L 324.64659 199.922536 
L 325.426756 191.293469 
L 326.206921 191.293469 
L 326.987086 182.664402 
L 327.767252 182.664402 
L 328.547417 174.035335 
L 329.327583 174.035335 
L 330.107748 182.664402 
L 330.887914 182.664402 
L 331.668079 174.035335 
L 332.448245 174.035335 
L 333.22841 165.406268 
L 334.008575 165.406268 
L 334.788741 156.777201 
L 335.568906 156.777201 
L 336.349072 165.406268 
L 337.129237 165.406268 
L 337.909403 156.777201 
L 338.689568 156.777201 
L 339.469734 182.664402 
L 340.249899 182.664402 
L 341.030064 174.035335 
L 341.81023 174.035335 
L 342.590395 182.664402 
L 343.370561 182.664402 
L 344.150726 174.035335 
L 344.930892 174.035335 
L 345.711057 165.406268 
L 346.491222 165.406268 
L 347.271388 156.777201 
L 348.051553 156.777201 
L 348.831719 165.406268 
L 349.611884 165.406268 
L 350.39205 156.777201 
L 351.172215 156.777201 
L 351.952381 148.148134 
L 352.732546 148.148134 
L 353.512711 139.519067 
L 354.292877 139.519067 
L 355.073042 148.148134 
L 355.853208 148.148134 
L 356.633373 139.519067 
L 357.413539 139.519067 
L 358.193704 130.89 
L 358.97387 130.89 
L 359.754035 122.260933 
L 360.5342 122.260933 
L 361.314366 130.89 
L 362.094531 130.89 
L 362.874697 122.260933 
L 363.654862 122.260933 
L 364.435028 148.148134 
L 365.215193 148.148134 
L 365.995359 139.519067 
L 366.775524 139.519067 
L 367.555689 148.148134 
L 368.335855 148.148134 
L 369.11602 139.519067 
L 369.896186 139.519067 
L 370.676351 130.89 
L 371.456517 130.89 
L 372.236682 122.260933 
L 373.016848 122.260933 
L 373.797013 130.89 
L 374.577178 130.89 
L 375.357344 122.260933 
L 376.137509 122.260933 
L 376.917675 182.664402 
L 377.69784 182.664402 
L 378.478006 174.035335 
L 379.258171 174.035335 
L 380.038336 182.664402 
L 380.818502 182.664402 
L 381.598667 174.035335 
L 382.378833 174.035335 
L 383.158998 165.406268 
L 383.939164 165.406268 
L 384.719329 156.777201 
L 385.499495 156.777201 
L 386.27966 165.406268 
L 387.059825 165.406268 
L 387.839991 156.777201 
L 388.620156 156.777201 
L 389.400322 182.664402 
L 390.180487 182.664402 
L 390.960653 174.035335 
L 391.740818 174.035335 
L 392.520984 182.664402 
L 393.301149 182.664402 
L 394.081314 174.035335 
L 394.86148 174.035335 
L 395.641645 165.406268 
L 396.421811 165.406268 
L 397.201976 156.777201 
L 397.982142 156.777201 
L 398.762307 165.406268 
L 399.542473 165.406268 
L 400.322638 156.777201 
L 401.102803 156.777201 
L 401.882969 148.148134 
L 402.663134 148.148134 
L 403.4433 139.519067 
L 404.223465 139.519067 
L 405.003631 148.148134 
L 405.783796 148.148134 
L 406.563961 139.519067 
L 407.344127 139.519067 
L 408.124292 130.89 
L 408.904458 130.89 
L 409.684623 122.260933 
L 410.464789 122.260933 
L 411.244954 130.89 
L 412.02512 130.89 
L 412.805285 122.260933 
L 413.58545 122.260933 
L 414.365616 148.148134 
L 415.145781 148.148134 
L 415.925947 139.519067 
L 416.706112 139.519067 
L 417.486278 148.148134 
L 417.486278 148.148134 
" style="fill:none;stroke:#009afa;stroke-linecap:round;"/>
   </g>
   <g id="matplotlib.axis_1">
    <g id="xtick_1">
     <g id="line2d_2">
      <defs>
       <path d="M 0 0 
L 0 -3.5 
" id="mb0aa8345e2" style="stroke:#000000;stroke-width:0.8;"/>
      </defs>
      <g>
       <use style="stroke:#000000;stroke-width:0.8;" x="27.403557" xlink:href="#mb0aa8345e2" y="258.945354"/>
      </g>
     </g>
     <g id="text_1">
      <!-- 0 -->
      <defs>
       <path d="M 31.78125 66.40625 
Q 24.171875 66.40625 20.328125 58.90625 
Q 16.5 51.421875 16.5 36.375 
Q 16.5 21.390625 20.328125 13.890625 
Q 24.171875 6.390625 31.78125 6.390625 
Q 39.453125 6.390625 43.28125 13.890625 
Q 47.125 21.390625 47.125 36.375 
Q 47.125 51.421875 43.28125 58.90625 
Q 39.453125 66.40625 31.78125 66.40625 
z
M 31.78125 74.21875 
Q 44.046875 74.21875 50.515625 64.515625 
Q 56.984375 54.828125 56.984375 36.375 
Q 56.984375 17.96875 50.515625 8.265625 
Q 44.046875 -1.421875 31.78125 -1.421875 
Q 19.53125 -1.421875 13.0625 8.265625 
Q 6.59375 17.96875 6.59375 36.375 
Q 6.59375 54.828125 13.0625 64.515625 
Q 19.53125 74.21875 31.78125 74.21875 
z
" id="DejaVuSans-48"/>
      </defs>
      <g transform="translate(24.858557 268.524104)scale(0.08 -0.08)">
       <use xlink:href="#DejaVuSans-48"/>
      </g>
     </g>
    </g>
    <g id="xtick_2">
     <g id="line2d_3">
      <g>
       <use style="stroke:#000000;stroke-width:0.8;" x="105.420101" xlink:href="#mb0aa8345e2" y="258.945354"/>
      </g>
     </g>
     <g id="text_2">
      <!-- 100 -->
      <defs>
       <path d="M 12.40625 8.296875 
L 28.515625 8.296875 
L 28.515625 63.921875 
L 10.984375 60.40625 
L 10.984375 69.390625 
L 28.421875 72.90625 
L 38.28125 72.90625 
L 38.28125 8.296875 
L 54.390625 8.296875 
L 54.390625 0 
L 12.40625 0 
z
" id="DejaVuSans-49"/>
      </defs>
      <g transform="translate(97.785101 268.524104)scale(0.08 -0.08)">
       <use xlink:href="#DejaVuSans-49"/>
       <use x="63.623047" xlink:href="#DejaVuSans-48"/>
       <use x="127.246094" xlink:href="#DejaVuSans-48"/>
      </g>
     </g>
    </g>
    <g id="xtick_3">
     <g id="line2d_4">
      <g>
       <use style="stroke:#000000;stroke-width:0.8;" x="183.436645" xlink:href="#mb0aa8345e2" y="258.945354"/>
      </g>
     </g>
     <g id="text_3">
      <!-- 200 -->
      <defs>
       <path d="M 19.1875 8.296875 
L 53.609375 8.296875 
L 53.609375 0 
L 7.328125 0 
L 7.328125 8.296875 
Q 12.9375 14.109375 22.625 23.890625 
Q 32.328125 33.6875 34.8125 36.53125 
Q 39.546875 41.84375 41.421875 45.53125 
Q 43.3125 49.21875 43.3125 52.78125 
Q 43.3125 58.59375 39.234375 62.25 
Q 35.15625 65.921875 28.609375 65.921875 
Q 23.96875 65.921875 18.8125 64.3125 
Q 13.671875 62.703125 7.8125 59.421875 
L 7.8125 69.390625 
Q 13.765625 71.78125 18.9375 73 
Q 24.125 74.21875 28.421875 74.21875 
Q 39.75 74.21875 46.484375 68.546875 
Q 53.21875 62.890625 53.21875 53.421875 
Q 53.21875 48.921875 51.53125 44.890625 
Q 49.859375 40.875 45.40625 35.40625 
Q 44.1875 33.984375 37.640625 27.21875 
Q 31.109375 20.453125 19.1875 8.296875 
z
" id="DejaVuSans-50"/>
      </defs>
      <g transform="translate(175.801645 268.524104)scale(0.08 -0.08)">
       <use xlink:href="#DejaVuSans-50"/>
       <use x="63.623047" xlink:href="#DejaVuSans-48"/>
       <use x="127.246094" xlink:href="#DejaVuSans-48"/>
      </g>
     </g>
    </g>
    <g id="xtick_4">
     <g id="line2d_5">
      <g>
       <use style="stroke:#000000;stroke-width:0.8;" x="261.453189" xlink:href="#mb0aa8345e2" y="258.945354"/>
      </g>
     </g>
     <g id="text_4">
      <!-- 300 -->
      <defs>
       <path d="M 40.578125 39.3125 
Q 47.65625 37.796875 51.625 33 
Q 55.609375 28.21875 55.609375 21.1875 
Q 55.609375 10.40625 48.1875 4.484375 
Q 40.765625 -1.421875 27.09375 -1.421875 
Q 22.515625 -1.421875 17.65625 -0.515625 
Q 12.796875 0.390625 7.625 2.203125 
L 7.625 11.71875 
Q 11.71875 9.328125 16.59375 8.109375 
Q 21.484375 6.890625 26.8125 6.890625 
Q 36.078125 6.890625 40.9375 10.546875 
Q 45.796875 14.203125 45.796875 21.1875 
Q 45.796875 27.640625 41.28125 31.265625 
Q 36.765625 34.90625 28.71875 34.90625 
L 20.21875 34.90625 
L 20.21875 43.015625 
L 29.109375 43.015625 
Q 36.375 43.015625 40.234375 45.921875 
Q 44.09375 48.828125 44.09375 54.296875 
Q 44.09375 59.90625 40.109375 62.90625 
Q 36.140625 65.921875 28.71875 65.921875 
Q 24.65625 65.921875 20.015625 65.03125 
Q 15.375 64.15625 9.8125 62.3125 
L 9.8125 71.09375 
Q 15.4375 72.65625 20.34375 73.4375 
Q 25.25 74.21875 29.59375 74.21875 
Q 40.828125 74.21875 47.359375 69.109375 
Q 53.90625 64.015625 53.90625 55.328125 
Q 53.90625 49.265625 50.4375 45.09375 
Q 46.96875 40.921875 40.578125 39.3125 
z
" id="DejaVuSans-51"/>
      </defs>
      <g transform="translate(253.818189 268.524104)scale(0.08 -0.08)">
       <use xlink:href="#DejaVuSans-51"/>
       <use x="63.623047" xlink:href="#DejaVuSans-48"/>
       <use x="127.246094" xlink:href="#DejaVuSans-48"/>
      </g>
     </g>
    </g>
    <g id="xtick_5">
     <g id="line2d_6">
      <g>
       <use style="stroke:#000000;stroke-width:0.8;" x="339.469734" xlink:href="#mb0aa8345e2" y="258.945354"/>
      </g>
     </g>
     <g id="text_5">
      <!-- 400 -->
      <defs>
       <path d="M 37.796875 64.3125 
L 12.890625 25.390625 
L 37.796875 25.390625 
z
M 35.203125 72.90625 
L 47.609375 72.90625 
L 47.609375 25.390625 
L 58.015625 25.390625 
L 58.015625 17.1875 
L 47.609375 17.1875 
L 47.609375 0 
L 37.796875 0 
L 37.796875 17.1875 
L 4.890625 17.1875 
L 4.890625 26.703125 
z
" id="DejaVuSans-52"/>
      </defs>
      <g transform="translate(331.834734 268.524104)scale(0.08 -0.08)">
       <use xlink:href="#DejaVuSans-52"/>
       <use x="63.623047" xlink:href="#DejaVuSans-48"/>
       <use x="127.246094" xlink:href="#DejaVuSans-48"/>
      </g>
     </g>
    </g>
    <g id="xtick_6">
     <g id="line2d_7">
      <g>
       <use style="stroke:#000000;stroke-width:0.8;" x="417.486278" xlink:href="#mb0aa8345e2" y="258.945354"/>
      </g>
     </g>
     <g id="text_6">
      <!-- 500 -->
      <defs>
       <path d="M 10.796875 72.90625 
L 49.515625 72.90625 
L 49.515625 64.59375 
L 19.828125 64.59375 
L 19.828125 46.734375 
Q 21.96875 47.46875 24.109375 47.828125 
Q 26.265625 48.1875 28.421875 48.1875 
Q 40.625 48.1875 47.75 41.5 
Q 54.890625 34.8125 54.890625 23.390625 
Q 54.890625 11.625 47.5625 5.09375 
Q 40.234375 -1.421875 26.90625 -1.421875 
Q 22.3125 -1.421875 17.546875 -0.640625 
Q 12.796875 0.140625 7.71875 1.703125 
L 7.71875 11.625 
Q 12.109375 9.234375 16.796875 8.0625 
Q 21.484375 6.890625 26.703125 6.890625 
Q 35.15625 6.890625 40.078125 11.328125 
Q 45.015625 15.765625 45.015625 23.390625 
Q 45.015625 31 40.078125 35.4375 
Q 35.15625 39.890625 26.703125 39.890625 
Q 22.75 39.890625 18.8125 39.015625 
Q 14.890625 38.140625 10.796875 36.28125 
z
" id="DejaVuSans-53"/>
      </defs>
      <g transform="translate(409.851278 268.524104)scale(0.08 -0.08)">
       <use xlink:href="#DejaVuSans-53"/>
       <use x="63.623047" xlink:href="#DejaVuSans-48"/>
       <use x="127.246094" xlink:href="#DejaVuSans-48"/>
      </g>
     </g>
    </g>
    <g id="text_7">
     <!-- $k$ -->
     <defs>
      <path d="M 18.3125 75.984375 
L 27.296875 75.984375 
L 18.703125 31.6875 
L 49.515625 54.6875 
L 61.1875 54.6875 
L 26.8125 28.515625 
L 51.90625 0 
L 41.015625 0 
L 17.671875 26.703125 
L 12.5 0 
L 3.515625 0 
z
" id="DejaVuSans-Oblique-107"/>
     </defs>
     <g transform="translate(219.645 282.546136)scale(0.11 -0.11)">
      <use transform="translate(0 0.015625)" xlink:href="#DejaVuSans-Oblique-107"/>
     </g>
    </g>
   </g>
   <g id="matplotlib.axis_2">
    <g id="ytick_1">
     <g id="line2d_8">
      <defs>
       <path d="M 0 0 
L 3.5 0 
" id="m864bd03a78" style="stroke:#000000;stroke-width:0.8;"/>
      </defs>
      <g>
       <use style="stroke:#000000;stroke-width:0.8;" x="16.504646" xlink:href="#m864bd03a78" y="251.696938"/>
      </g>
     </g>
     <g id="text_8">
      <!-- 0 -->
      <g transform="translate(7.914646 254.736313)scale(0.08 -0.08)">
       <use xlink:href="#DejaVuSans-48"/>
      </g>
     </g>
    </g>
    <g id="ytick_2">
     <g id="line2d_9">
      <g>
       <use style="stroke:#000000;stroke-width:0.8;" x="16.504646" xlink:href="#m864bd03a78" y="208.551603"/>
      </g>
     </g>
     <g id="text_9">
      <!-- 5 -->
      <g transform="translate(7.914646 211.590978)scale(0.08 -0.08)">
       <use xlink:href="#DejaVuSans-53"/>
      </g>
     </g>
    </g>
    <g id="ytick_3">
     <g id="line2d_10">
      <g>
       <use style="stroke:#000000;stroke-width:0.8;" x="16.504646" xlink:href="#m864bd03a78" y="165.406268"/>
      </g>
     </g>
     <g id="text_10">
      <!-- 10 -->
      <g transform="translate(2.824646 168.445643)scale(0.08 -0.08)">
       <use xlink:href="#DejaVuSans-49"/>
       <use x="63.623047" xlink:href="#DejaVuSans-48"/>
      </g>
     </g>
    </g>
    <g id="ytick_4">
     <g id="line2d_11">
      <g>
       <use style="stroke:#000000;stroke-width:0.8;" x="16.504646" xlink:href="#m864bd03a78" y="122.260933"/>
      </g>
     </g>
     <g id="text_11">
      <!-- 15 -->
      <g transform="translate(2.824646 125.300308)scale(0.08 -0.08)">
       <use xlink:href="#DejaVuSans-49"/>
       <use x="63.623047" xlink:href="#DejaVuSans-53"/>
      </g>
     </g>
    </g>
    <g id="ytick_5">
     <g id="line2d_12">
      <g>
       <use style="stroke:#000000;stroke-width:0.8;" x="16.504646" xlink:href="#m864bd03a78" y="79.115598"/>
      </g>
     </g>
     <g id="text_12">
      <!-- 20 -->
      <g transform="translate(2.824646 82.154973)scale(0.08 -0.08)">
       <use xlink:href="#DejaVuSans-50"/>
       <use x="63.623047" xlink:href="#DejaVuSans-48"/>
      </g>
     </g>
    </g>
    <g id="ytick_6">
     <g id="line2d_13">
      <g>
       <use style="stroke:#000000;stroke-width:0.8;" x="16.504646" xlink:href="#m864bd03a78" y="35.970263"/>
      </g>
     </g>
     <g id="text_13">
      <!-- 25 -->
      <g transform="translate(2.824646 39.009638)scale(0.08 -0.08)">
       <use xlink:href="#DejaVuSans-50"/>
       <use x="63.623047" xlink:href="#DejaVuSans-53"/>
      </g>
     </g>
    </g>
   </g>
   <g id="line2d_14">
    <path clip-path="url(#p744d6c40be)" d="M 28.183722 251.696938 
L 29.744053 251.696938 
L 30.524219 243.067871 
L 32.864715 243.067871 
L 33.64488 251.696938 
L 35.985377 251.696938 
L 36.765542 243.067871 
L 39.106039 243.067871 
L 39.886204 234.438804 
L 42.2267 234.438804 
L 43.006866 225.809737 
L 45.347362 225.809737 
L 46.127527 234.438804 
L 48.468024 234.438804 
L 49.248189 225.809737 
L 51.588686 225.809737 
L 52.368851 251.696938 
L 54.709347 251.696938 
L 55.489513 243.067871 
L 57.830009 243.067871 
L 58.610175 251.696938 
L 60.950671 251.696938 
L 61.730836 243.067871 
L 64.071333 243.067871 
L 64.851498 234.438804 
L 67.191994 234.438804 
L 67.97216 225.809737 
L 70.312656 225.809737 
L 71.092822 234.438804 
L 73.433318 234.438804 
L 74.213483 225.809737 
L 76.55398 225.809737 
L 77.334145 217.18067 
L 79.674641 217.18067 
L 80.454807 208.551603 
L 82.795303 208.551603 
L 83.575469 217.18067 
L 85.915965 217.18067 
L 86.69613 208.551603 
L 89.036627 208.551603 
L 89.816792 199.922536 
L 92.157289 199.922536 
L 92.937454 191.293469 
L 95.27795 191.293469 
L 96.058116 199.922536 
L 98.398612 199.922536 
L 99.178778 191.293469 
L 101.519274 191.293469 
L 102.299439 217.18067 
L 104.639936 217.18067 
L 105.420101 208.551603 
L 107.760597 208.551603 
L 108.540763 217.18067 
L 110.881259 217.18067 
L 111.661425 208.551603 
L 114.001921 208.551603 
L 114.782086 199.922536 
L 117.122583 199.922536 
L 117.902748 191.293469 
L 120.243244 191.293469 
L 121.02341 199.922536 
L 123.363906 199.922536 
L 124.144072 191.293469 
L 126.484568 191.293469 
L 127.264733 251.696938 
L 129.60523 251.696938 
L 130.385395 243.067871 
L 132.725891 243.067871 
L 133.506057 251.696938 
L 135.846553 251.696938 
L 136.626719 243.067871 
L 138.967215 243.067871 
L 139.74738 234.438804 
L 142.087877 234.438804 
L 142.868042 225.809737 
L 145.208539 225.809737 
L 145.988704 234.438804 
L 148.3292 234.438804 
L 149.109366 225.809737 
L 151.449862 225.809737 
L 152.230028 251.696938 
L 154.570524 251.696938 
L 155.350689 243.067871 
L 157.691186 243.067871 
L 158.471351 251.696938 
L 160.811847 251.696938 
L 161.592013 243.067871 
L 163.932509 243.067871 
L 164.712675 234.438804 
L 167.053171 234.438804 
L 167.833336 225.809737 
L 170.173833 225.809737 
L 170.953998 234.438804 
L 173.294494 234.438804 
L 174.07466 225.809737 
L 176.415156 225.809737 
L 177.195322 217.18067 
L 179.535818 217.18067 
L 180.315983 208.551603 
L 182.65648 208.551603 
L 183.436645 217.18067 
L 185.777142 217.18067 
L 186.557307 208.551603 
L 188.897803 208.551603 
L 189.677969 199.922536 
L 192.018465 199.922536 
L 192.79863 191.293469 
L 195.139127 191.293469 
L 195.919292 199.922536 
L 198.259789 199.922536 
L 199.039954 191.293469 
L 201.38045 191.293469 
L 202.160616 217.18067 
L 204.501112 217.18067 
L 205.281278 208.551603 
L 207.621774 208.551603 
L 208.401939 217.18067 
L 210.742436 217.18067 
L 211.522601 208.551603 
L 213.863097 208.551603 
L 214.643263 199.922536 
L 216.983759 199.922536 
L 217.763925 191.293469 
L 220.104421 191.293469 
L 220.884586 199.922536 
L 223.225083 199.922536 
L 224.005248 191.293469 
L 226.345744 191.293469 
L 227.12591 182.664402 
L 229.466406 182.664402 
L 230.246572 174.035335 
L 232.587068 174.035335 
L 233.367233 182.664402 
L 235.70773 182.664402 
L 236.487895 174.035335 
L 238.828392 174.035335 
L 239.608557 165.406268 
L 241.949053 165.406268 
L 242.729219 156.777201 
L 245.069715 156.777201 
L 245.849881 165.406268 
L 248.190377 165.406268 
L 248.970542 156.777201 
L 251.311039 156.777201 
L 252.091204 182.664402 
L 254.4317 182.664402 
L 255.211866 174.035335 
L 257.552362 174.035335 
L 258.332528 182.664402 
L 260.673024 182.664402 
L 261.453189 174.035335 
L 263.793686 174.035335 
L 264.573851 165.406268 
L 266.914347 165.406268 
L 267.694513 156.777201 
L 270.035009 156.777201 
L 270.815175 165.406268 
L 273.155671 165.406268 
L 273.935836 156.777201 
L 276.276333 156.777201 
L 277.056498 148.148134 
L 279.396995 148.148134 
L 280.17716 139.519067 
L 282.517656 139.519067 
L 283.297822 148.148134 
L 285.638318 148.148134 
L 286.418483 139.519067 
L 288.75898 139.519067 
L 289.539145 130.89 
L 291.879642 130.89 
L 292.659807 122.260933 
L 295.000303 122.260933 
L 295.780469 130.89 
L 298.120965 130.89 
L 298.901131 122.260933 
L 301.241627 122.260933 
L 302.021792 148.148134 
L 304.362289 148.148134 
L 305.142454 139.519067 
L 307.48295 139.519067 
L 308.263116 148.148134 
L 310.603612 148.148134 
L 311.383778 139.519067 
L 313.724274 139.519067 
L 314.504439 130.89 
L 316.844936 130.89 
L 317.625101 122.260933 
L 319.965597 122.260933 
L 320.745763 130.89 
L 323.086259 130.89 
L 323.866425 122.260933 
L 326.206921 122.260933 
L 326.987086 182.664402 
L 329.327583 182.664402 
L 330.107748 174.035335 
L 332.448245 174.035335 
L 333.22841 182.664402 
L 335.568906 182.664402 
L 336.349072 174.035335 
L 338.689568 174.035335 
L 339.469734 165.406268 
L 341.81023 165.406268 
L 342.590395 156.777201 
L 344.930892 156.777201 
L 345.711057 165.406268 
L 348.051553 165.406268 
L 348.831719 156.777201 
L 351.172215 156.777201 
L 351.952381 182.664402 
L 354.292877 182.664402 
L 355.073042 174.035335 
L 357.413539 174.035335 
L 358.193704 182.664402 
L 360.5342 182.664402 
L 361.314366 174.035335 
L 363.654862 174.035335 
L 364.435028 165.406268 
L 366.775524 165.406268 
L 367.555689 156.777201 
L 369.896186 156.777201 
L 370.676351 165.406268 
L 373.016848 165.406268 
L 373.797013 156.777201 
L 376.137509 156.777201 
L 376.917675 148.148134 
L 379.258171 148.148134 
L 380.038336 139.519067 
L 382.378833 139.519067 
L 383.158998 148.148134 
L 385.499495 148.148134 
L 386.27966 139.519067 
L 388.620156 139.519067 
L 389.400322 130.89 
L 391.740818 130.89 
L 392.520984 122.260933 
L 394.86148 122.260933 
L 395.641645 130.89 
L 397.982142 130.89 
L 398.762307 122.260933 
L 401.102803 122.260933 
L 401.882969 148.148134 
L 404.223465 148.148134 
L 405.003631 139.519067 
L 407.344127 139.519067 
L 408.124292 148.148134 
L 410.464789 148.148134 
L 411.244954 139.519067 
L 413.58545 139.519067 
L 414.365616 130.89 
L 416.706112 130.89 
L 417.486278 122.260933 
L 417.486278 122.260933 
" style="fill:none;stroke:#e36f47;stroke-linecap:round;"/>
   </g>
   <g id="patch_3">
    <path d="M 16.504646 258.945354 
L 16.504646 2.834646 
" style="fill:none;stroke:#000000;stroke-linecap:square;stroke-linejoin:miter;"/>
   </g>
   <g id="patch_4">
    <path d="M 16.504646 258.945354 
L 429.165354 258.945354 
" style="fill:none;stroke:#000000;stroke-linecap:square;stroke-linejoin:miter;"/>
   </g>
   <g id="line2d_15">
    <path clip-path="url(#p744d6c40be)" d="M 28.183722 251.696938 
L 28.963888 243.067871 
L 31.304384 243.067871 
L 32.08455 234.438804 
L 34.425046 234.438804 
L 35.205211 225.809737 
L 37.545708 225.809737 
L 38.325873 217.18067 
L 39.106039 217.18067 
L 39.886204 234.438804 
L 40.666369 234.438804 
L 41.446535 225.809737 
L 43.787031 225.809737 
L 44.567197 217.18067 
L 46.907693 217.18067 
L 47.687858 208.551603 
L 50.028355 208.551603 
L 50.80852 199.922536 
L 51.588686 199.922536 
L 52.368851 217.18067 
L 53.149016 217.18067 
L 53.929182 208.551603 
L 56.269678 208.551603 
L 57.049844 199.922536 
L 59.39034 199.922536 
L 60.170505 191.293469 
L 62.511002 191.293469 
L 63.291167 182.664402 
L 64.071333 182.664402 
L 64.851498 199.922536 
L 65.631664 199.922536 
L 66.411829 191.293469 
L 68.752325 191.293469 
L 69.532491 182.664402 
L 71.872987 182.664402 
L 72.653152 174.035335 
L 74.993649 174.035335 
L 75.773814 165.406268 
L 76.55398 165.406268 
L 77.334145 217.18067 
L 78.114311 217.18067 
L 78.894476 208.551603 
L 81.234972 208.551603 
L 82.015138 199.922536 
L 84.355634 199.922536 
L 85.1358 191.293469 
L 87.476296 191.293469 
L 88.256461 182.664402 
L 89.036627 182.664402 
L 89.816792 199.922536 
L 90.596958 199.922536 
L 91.377123 191.293469 
L 93.717619 191.293469 
L 94.497785 182.664402 
L 96.838281 182.664402 
L 97.618447 174.035335 
L 99.958943 174.035335 
L 100.739108 165.406268 
L 101.519274 165.406268 
L 102.299439 182.664402 
L 103.079605 182.664402 
L 103.85977 174.035335 
L 106.200266 174.035335 
L 106.980432 165.406268 
L 109.320928 165.406268 
L 110.101094 156.777201 
L 112.44159 156.777201 
L 113.221755 148.148134 
L 114.001921 148.148134 
L 114.782086 165.406268 
L 115.562252 165.406268 
L 116.342417 156.777201 
L 118.682914 156.777201 
L 119.463079 148.148134 
L 121.803575 148.148134 
L 122.583741 139.519067 
L 124.924237 139.519067 
L 125.704403 130.89 
L 126.484568 130.89 
L 127.264733 182.664402 
L 128.044899 182.664402 
L 128.825064 174.035335 
L 131.165561 174.035335 
L 131.945726 165.406268 
L 134.286222 165.406268 
L 135.066388 156.777201 
L 137.406884 156.777201 
L 138.18705 148.148134 
L 138.967215 148.148134 
L 139.74738 165.406268 
L 140.527546 165.406268 
L 141.307711 156.777201 
L 143.648208 156.777201 
L 144.428373 148.148134 
L 146.768869 148.148134 
L 147.549035 139.519067 
L 149.889531 139.519067 
L 150.669697 130.89 
L 151.449862 130.89 
L 152.230028 148.148134 
L 153.010193 148.148134 
L 153.790358 139.519067 
L 156.130855 139.519067 
L 156.91102 130.89 
L 159.251517 130.89 
L 160.031682 122.260933 
L 162.372178 122.260933 
L 163.152344 113.631866 
L 163.932509 113.631866 
L 164.712675 130.89 
L 165.49284 130.89 
L 166.273005 122.260933 
L 168.613502 122.260933 
L 169.393667 113.631866 
L 171.734164 113.631866 
L 172.514329 105.002799 
L 174.854825 105.002799 
L 175.634991 96.373732 
L 176.415156 96.373732 
L 177.195322 148.148134 
L 177.975487 148.148134 
L 178.755653 139.519067 
L 181.096149 139.519067 
L 181.876314 130.89 
L 184.216811 130.89 
L 184.996976 122.260933 
L 187.337472 122.260933 
L 188.117638 113.631866 
L 188.897803 113.631866 
L 189.677969 130.89 
L 190.458134 130.89 
L 191.2383 122.260933 
L 193.578796 122.260933 
L 194.358961 113.631866 
L 196.699458 113.631866 
L 197.479623 105.002799 
L 199.820119 105.002799 
L 200.600285 96.373732 
L 201.38045 96.373732 
L 202.160616 113.631866 
L 202.940781 113.631866 
L 203.720947 105.002799 
L 206.061443 105.002799 
L 206.841608 96.373732 
L 209.182105 96.373732 
L 209.96227 87.744665 
L 212.302767 87.744665 
L 213.082932 79.115598 
L 213.863097 79.115598 
L 214.643263 96.373732 
L 215.423428 96.373732 
L 216.203594 87.744665 
L 218.54409 87.744665 
L 219.324256 79.115598 
L 221.664752 79.115598 
L 222.444917 70.486531 
L 224.785414 70.486531 
L 225.565579 61.857464 
L 226.345744 61.857464 
L 227.12591 182.664402 
L 227.906075 182.664402 
L 228.686241 174.035335 
L 231.026737 174.035335 
L 231.806903 165.406268 
L 234.147399 165.406268 
L 234.927564 156.777201 
L 237.268061 156.777201 
L 238.048226 148.148134 
L 238.828392 148.148134 
L 239.608557 165.406268 
L 240.388722 165.406268 
L 241.168888 156.777201 
L 243.509384 156.777201 
L 244.28955 148.148134 
L 246.630046 148.148134 
L 247.410211 139.519067 
L 249.750708 139.519067 
L 250.530873 130.89 
L 251.311039 130.89 
L 252.091204 148.148134 
L 252.87137 148.148134 
L 253.651535 139.519067 
L 255.992031 139.519067 
L 256.772197 130.89 
L 259.112693 130.89 
L 259.892858 122.260933 
L 262.233355 122.260933 
L 263.01352 113.631866 
L 263.793686 113.631866 
L 264.573851 130.89 
L 265.354017 130.89 
L 266.134182 122.260933 
L 268.474678 122.260933 
L 269.254844 113.631866 
L 271.59534 113.631866 
L 272.375506 105.002799 
L 274.716002 105.002799 
L 275.496167 96.373732 
L 276.276333 96.373732 
L 277.056498 148.148134 
L 277.836664 148.148134 
L 278.616829 139.519067 
L 280.957325 139.519067 
L 281.737491 130.89 
L 284.077987 130.89 
L 284.858153 122.260933 
L 287.198649 122.260933 
L 287.978814 113.631866 
L 288.75898 113.631866 
L 289.539145 130.89 
L 290.319311 130.89 
L 291.099476 122.260933 
L 293.439972 122.260933 
L 294.220138 113.631866 
L 296.560634 113.631866 
L 297.3408 105.002799 
L 299.681296 105.002799 
L 300.461461 96.373732 
L 301.241627 96.373732 
L 302.021792 113.631866 
L 302.801958 113.631866 
L 303.582123 105.002799 
L 305.92262 105.002799 
L 306.702785 96.373732 
L 309.043281 96.373732 
L 309.823447 87.744665 
L 312.163943 87.744665 
L 312.944109 79.115598 
L 313.724274 79.115598 
L 314.504439 96.373732 
L 315.284605 96.373732 
L 316.06477 87.744665 
L 318.405267 87.744665 
L 319.185432 79.115598 
L 321.525928 79.115598 
L 322.306094 70.486531 
L 324.64659 70.486531 
L 325.426756 61.857464 
L 326.206921 61.857464 
L 326.987086 113.631866 
L 327.767252 113.631866 
L 328.547417 105.002799 
L 330.887914 105.002799 
L 331.668079 96.373732 
L 334.008575 96.373732 
L 334.788741 87.744665 
L 337.129237 87.744665 
L 337.909403 79.115598 
L 338.689568 79.115598 
L 339.469734 96.373732 
L 340.249899 96.373732 
L 341.030064 87.744665 
L 343.370561 87.744665 
L 344.150726 79.115598 
L 346.491222 79.115598 
L 347.271388 70.486531 
L 349.611884 70.486531 
L 350.39205 61.857464 
L 351.172215 61.857464 
L 351.952381 79.115598 
L 352.732546 79.115598 
L 353.512711 70.486531 
L 355.853208 70.486531 
L 356.633373 61.857464 
L 358.97387 61.857464 
L 359.754035 53.228397 
L 362.094531 53.228397 
L 362.874697 44.59933 
L 363.654862 44.59933 
L 364.435028 61.857464 
L 365.215193 61.857464 
L 365.995359 53.228397 
L 368.335855 53.228397 
L 369.11602 44.59933 
L 371.456517 44.59933 
L 372.236682 35.970263 
L 374.577178 35.970263 
L 375.357344 27.341196 
L 376.137509 27.341196 
L 376.917675 79.115598 
L 377.69784 79.115598 
L 378.478006 70.486531 
L 380.818502 70.486531 
L 381.598667 61.857464 
L 383.939164 61.857464 
L 384.719329 53.228397 
L 387.059825 53.228397 
L 387.839991 44.59933 
L 388.620156 44.59933 
L 389.400322 61.857464 
L 390.180487 61.857464 
L 390.960653 53.228397 
L 393.301149 53.228397 
L 394.081314 44.59933 
L 396.421811 44.59933 
L 397.201976 35.970263 
L 399.542473 35.970263 
L 400.322638 27.341196 
L 401.102803 27.341196 
L 401.882969 44.59933 
L 402.663134 44.59933 
L 403.4433 35.970263 
L 405.783796 35.970263 
L 406.563961 27.341196 
L 408.904458 27.341196 
L 409.684623 18.712129 
L 412.02512 18.712129 
L 412.805285 10.083062 
L 413.58545 10.083062 
L 414.365616 27.341196 
L 415.145781 27.341196 
L 415.925947 18.712129 
L 417.486278 18.712129 
L 417.486278 18.712129 
" style="fill:none;stroke:#3ea44e;stroke-linecap:round;"/>
   </g>
   <g id="line2d_16">
    <path clip-path="url(#p744d6c40be)" d="M 28.183722 243.067871 
L 28.963888 239.493594 
L 29.744053 236.750956 
L 31.304384 232.401758 
L 32.864715 228.866573 
L 34.425046 225.809737 
L 36.765542 221.804973 
L 39.106039 218.276705 
L 42.2267 214.083707 
L 45.347362 210.313386 
L 48.468024 206.858991 
L 52.368851 202.883564 
L 56.269678 199.208373 
L 60.950671 195.112362 
L 65.631664 191.293469 
L 71.092822 187.122913 
L 77.334145 182.664402 
L 83.575469 178.476877 
L 90.596958 174.035335 
L 98.398612 169.380885 
L 106.980432 164.547633 
L 115.562252 159.968698 
L 124.924237 155.221036 
L 135.066388 150.328353 
L 145.988704 145.310655 
L 157.691186 140.184817 
L 170.173833 134.965083 
L 183.436645 129.663502 
L 197.479623 124.290291 
L 212.302767 118.85414 
L 227.906075 113.36247 
L 245.069715 107.563103 
L 263.01352 101.739741 
L 281.737491 95.895077 
L 302.021792 89.801291 
L 323.086259 83.706932 
L 345.711057 77.398328 
L 369.11602 71.103945 
L 394.081314 64.623223 
L 417.486278 58.745134 
L 417.486278 58.745134 
" style="fill:none;stroke:#c371d2;stroke-linecap:round;"/>
   </g>
   <g id="legend_1">
    <g id="patch_5">
     <path d="M 22.104646 57.582146 
L 67.464646 57.582146 
Q 69.064646 57.582146 69.064646 55.982146 
L 69.064646 8.434646 
Q 69.064646 6.834646 67.464646 6.834646 
L 22.104646 6.834646 
Q 20.504646 6.834646 20.504646 8.434646 
L 20.504646 55.982146 
Q 20.504646 57.582146 22.104646 57.582146 
z
" style="fill:#ffffff;stroke:#000000;stroke-linejoin:miter;"/>
    </g>
    <g id="line2d_17">
     <path d="M 23.704646 13.313396 
L 39.704646 13.313396 
" style="fill:none;stroke:#009afa;stroke-linecap:square;"/>
    </g>
    <g id="line2d_18"/>
    <g id="text_14">
     <!-- $n_3(k)$ -->
     <defs>
      <path d="M 55.71875 33.015625 
L 49.3125 0 
L 40.28125 0 
L 46.6875 32.671875 
Q 47.125 34.96875 47.359375 36.71875 
Q 47.609375 38.484375 47.609375 39.5 
Q 47.609375 43.609375 45.015625 45.890625 
Q 42.4375 48.1875 37.796875 48.1875 
Q 30.5625 48.1875 25.34375 43.375 
Q 20.125 38.578125 18.5 30.328125 
L 12.5 0 
L 3.515625 0 
L 14.109375 54.6875 
L 23.09375 54.6875 
L 21.296875 46.09375 
Q 25.046875 50.828125 30.3125 53.40625 
Q 35.59375 56 41.40625 56 
Q 48.640625 56 52.609375 52.09375 
Q 56.59375 48.1875 56.59375 41.109375 
Q 56.59375 39.359375 56.375 37.359375 
Q 56.15625 35.359375 55.71875 33.015625 
z
" id="DejaVuSans-Oblique-110"/>
      <path d="M 31 75.875 
Q 24.46875 64.65625 21.28125 53.65625 
Q 18.109375 42.671875 18.109375 31.390625 
Q 18.109375 20.125 21.3125 9.0625 
Q 24.515625 -2 31 -13.1875 
L 23.1875 -13.1875 
Q 15.875 -1.703125 12.234375 9.375 
Q 8.59375 20.453125 8.59375 31.390625 
Q 8.59375 42.28125 12.203125 53.3125 
Q 15.828125 64.359375 23.1875 75.875 
z
" id="DejaVuSans-40"/>
      <path d="M 8.015625 75.875 
L 15.828125 75.875 
Q 23.140625 64.359375 26.78125 53.3125 
Q 30.421875 42.28125 30.421875 31.390625 
Q 30.421875 20.453125 26.78125 9.375 
Q 23.140625 -1.703125 15.828125 -13.1875 
L 8.015625 -13.1875 
Q 14.5 -2 17.703125 9.0625 
Q 20.90625 20.125 20.90625 31.390625 
Q 20.90625 42.671875 17.703125 53.65625 
Q 14.5 64.65625 8.015625 75.875 
z
" id="DejaVuSans-41"/>
     </defs>
     <g transform="translate(46.104646 16.113396)scale(0.08 -0.08)">
      <use transform="translate(0 0.015625)" xlink:href="#DejaVuSans-Oblique-110"/>
      <use transform="translate(63.378906 -16.390625)scale(0.7)" xlink:href="#DejaVuSans-51"/>
      <use transform="translate(110.649414 0.015625)" xlink:href="#DejaVuSans-40"/>
      <use transform="translate(149.663086 0.015625)" xlink:href="#DejaVuSans-Oblique-107"/>
      <use transform="translate(207.573242 0.015625)" xlink:href="#DejaVuSans-41"/>
     </g>
    </g>
    <g id="line2d_19">
     <path d="M 23.704646 25.055896 
L 39.704646 25.055896 
" style="fill:none;stroke:#e36f47;stroke-linecap:square;"/>
    </g>
    <g id="line2d_20"/>
    <g id="text_15">
     <!-- $n_5(k)$ -->
     <g transform="translate(46.104646 27.855896)scale(0.08 -0.08)">
      <use transform="translate(0 0.015625)" xlink:href="#DejaVuSans-Oblique-110"/>
      <use transform="translate(63.378906 -16.390625)scale(0.7)" xlink:href="#DejaVuSans-53"/>
      <use transform="translate(110.649414 0.015625)" xlink:href="#DejaVuSans-40"/>
      <use transform="translate(149.663086 0.015625)" xlink:href="#DejaVuSans-Oblique-107"/>
      <use transform="translate(207.573242 0.015625)" xlink:href="#DejaVuSans-41"/>
     </g>
    </g>
    <g id="line2d_21">
     <path d="M 23.704646 36.798396 
L 39.704646 36.798396 
" style="fill:none;stroke:#3ea44e;stroke-linecap:square;"/>
    </g>
    <g id="line2d_22"/>
    <g id="text_16">
     <!-- $h(k)$ -->
     <defs>
      <path d="M 55.71875 33.015625 
L 49.3125 0 
L 40.28125 0 
L 46.6875 32.671875 
Q 47.125 34.96875 47.359375 36.71875 
Q 47.609375 38.484375 47.609375 39.5 
Q 47.609375 43.609375 45.015625 45.890625 
Q 42.4375 48.1875 37.796875 48.1875 
Q 30.5625 48.1875 25.265625 43.296875 
Q 19.96875 38.421875 18.40625 30.328125 
L 12.5 0 
L 3.515625 0 
L 18.3125 75.984375 
L 27.296875 75.984375 
L 21.484375 46.09375 
Q 24.90625 50.6875 30.21875 53.34375 
Q 35.546875 56 41.40625 56 
Q 48.640625 56 52.609375 52.09375 
Q 56.59375 48.1875 56.59375 41.109375 
Q 56.59375 39.359375 56.375 37.359375 
Q 56.15625 35.359375 55.71875 33.015625 
z
" id="DejaVuSans-Oblique-104"/>
     </defs>
     <g transform="translate(46.104646 39.598396)scale(0.08 -0.08)">
      <use transform="translate(0 0.015625)" xlink:href="#DejaVuSans-Oblique-104"/>
      <use transform="translate(63.378906 0.015625)" xlink:href="#DejaVuSans-40"/>
      <use transform="translate(102.392578 0.015625)" xlink:href="#DejaVuSans-Oblique-107"/>
      <use transform="translate(160.302734 0.015625)" xlink:href="#DejaVuSans-41"/>
     </g>
    </g>
    <g id="line2d_23">
     <path d="M 23.704646 49.918396 
L 39.704646 49.918396 
" style="fill:none;stroke:#c371d2;stroke-linecap:square;"/>
    </g>
    <g id="line2d_24"/>
    <g id="text_17">
     <!-- $\sqrt{k}$ -->
     <defs>
      <path d="M 108.90625 155.203125 
L 52.703125 -29.5 
L 48.5 -29.5 
L 25.40625 45.59375 
Q 24.296875 49.203125 22.890625 50.796875 
Q 21.5 52.40625 19.203125 52.40625 
Q 15.796875 52.40625 12.40625 49.703125 
L 11.203125 51.703125 
L 27.59375 64.296875 
L 30.09375 64.296875 
L 52.796875 -9.40625 
L 53.203125 -9.40625 
L 103.203125 155.203125 
z
" id="STIXSizeOneSym-Regular-8730"/>
     </defs>
     <g transform="translate(46.104646 52.718396)scale(0.08 -0.08)">
      <use transform="translate(0 17.90625)scale(0.580577)" xlink:href="#STIXSizeOneSym-Regular-8730"/>
      <use transform="translate(73.855545 0.765625)" xlink:href="#DejaVuSans-Oblique-107"/>
      <path d="M 61.355545 101.5 
L 61.355545 107.75 
L 144.265701 107.75 
L 144.265701 101.5 
L 61.355545 101.5 
z
"/>
     </g>
    </g>
   </g>
  </g>
 </g>
 <defs>
  <clipPath id="p744d6c40be">
   <rect height="256.110709" width="412.660709" x="16.504646" y="2.834646"/>
  </clipPath>
 </defs>
</svg>
